<mxfile host="app.diagrams.net" agent="Mozilla/5.0 (Windows NT 10.0; Win64; x64; rv:129.0) Gecko/20100101 Firefox/129.0" version="26.2.14">
  <diagram name="Page-1" id="OKZBNi2jsD1jwCaAhWsN">
    <mxGraphModel dx="1678" dy="974" grid="0" gridSize="10" guides="1" tooltips="1" connect="1" arrows="1" fold="1" page="1" pageScale="1" pageWidth="827" pageHeight="1169" math="0" shadow="0">
      <root>
        <mxCell id="0" />
        <mxCell id="1" parent="0" />
        <mxCell id="sF0Dp-q9WW-C34XVPIgy-6" value="" style="group" vertex="1" connectable="0" parent="1">
          <mxGeometry width="257.14" height="270" as="geometry" />
        </mxCell>
        <mxCell id="VGW60h7sZUECc9IYRqeE-22" value="" style="group" parent="sF0Dp-q9WW-C34XVPIgy-6" vertex="1" connectable="0">
          <mxGeometry y="180" width="257.14" height="77.14285714285715" as="geometry" />
        </mxCell>
        <mxCell id="VGW60h7sZUECc9IYRqeE-11" value="" style="group" parent="VGW60h7sZUECc9IYRqeE-22" vertex="1" connectable="0">
          <mxGeometry width="77.142" height="77.14285714285715" as="geometry" />
        </mxCell>
        <mxCell id="VGW60h7sZUECc9IYRqeE-3" value="" style="endArrow=none;html=1;rounded=0;" parent="VGW60h7sZUECc9IYRqeE-11" edge="1">
          <mxGeometry width="50" height="50" relative="1" as="geometry">
            <mxPoint x="25.714" y="77.14285714285715" as="sourcePoint" />
            <mxPoint x="25.714" as="targetPoint" />
          </mxGeometry>
        </mxCell>
        <mxCell id="VGW60h7sZUECc9IYRqeE-8" value="" style="endArrow=none;html=1;rounded=0;" parent="VGW60h7sZUECc9IYRqeE-11" edge="1">
          <mxGeometry width="50" height="50" relative="1" as="geometry">
            <mxPoint x="51.428" y="77.14285714285715" as="sourcePoint" />
            <mxPoint x="51.428" as="targetPoint" />
          </mxGeometry>
        </mxCell>
        <mxCell id="VGW60h7sZUECc9IYRqeE-9" value="" style="endArrow=none;html=1;rounded=0;" parent="VGW60h7sZUECc9IYRqeE-11" edge="1">
          <mxGeometry width="50" height="50" relative="1" as="geometry">
            <mxPoint x="77.142" y="25.714285714285715" as="sourcePoint" />
            <mxPoint y="25.714285714285715" as="targetPoint" />
          </mxGeometry>
        </mxCell>
        <mxCell id="VGW60h7sZUECc9IYRqeE-10" value="" style="endArrow=none;html=1;rounded=0;" parent="VGW60h7sZUECc9IYRqeE-11" edge="1">
          <mxGeometry width="50" height="50" relative="1" as="geometry">
            <mxPoint x="77.142" y="51.42857142857143" as="sourcePoint" />
            <mxPoint y="51.42857142857143" as="targetPoint" />
          </mxGeometry>
        </mxCell>
        <mxCell id="VGW60h7sZUECc9IYRqeE-12" value="" style="group" parent="VGW60h7sZUECc9IYRqeE-22" vertex="1" connectable="0">
          <mxGeometry x="89.999" width="77.142" height="77.14285714285715" as="geometry" />
        </mxCell>
        <mxCell id="VGW60h7sZUECc9IYRqeE-13" value="" style="endArrow=none;html=1;rounded=0;" parent="VGW60h7sZUECc9IYRqeE-12" edge="1">
          <mxGeometry width="50" height="50" relative="1" as="geometry">
            <mxPoint x="25.714" y="77.14285714285715" as="sourcePoint" />
            <mxPoint x="25.714" as="targetPoint" />
          </mxGeometry>
        </mxCell>
        <mxCell id="VGW60h7sZUECc9IYRqeE-14" value="" style="endArrow=none;html=1;rounded=0;" parent="VGW60h7sZUECc9IYRqeE-12" edge="1">
          <mxGeometry width="50" height="50" relative="1" as="geometry">
            <mxPoint x="51.428" y="77.14285714285715" as="sourcePoint" />
            <mxPoint x="51.428" as="targetPoint" />
          </mxGeometry>
        </mxCell>
        <mxCell id="VGW60h7sZUECc9IYRqeE-15" value="" style="endArrow=none;html=1;rounded=0;" parent="VGW60h7sZUECc9IYRqeE-12" edge="1">
          <mxGeometry width="50" height="50" relative="1" as="geometry">
            <mxPoint x="77.142" y="25.714285714285715" as="sourcePoint" />
            <mxPoint y="25.714285714285715" as="targetPoint" />
          </mxGeometry>
        </mxCell>
        <mxCell id="VGW60h7sZUECc9IYRqeE-16" value="" style="endArrow=none;html=1;rounded=0;" parent="VGW60h7sZUECc9IYRqeE-12" edge="1">
          <mxGeometry width="50" height="50" relative="1" as="geometry">
            <mxPoint x="77.142" y="51.42857142857143" as="sourcePoint" />
            <mxPoint y="51.42857142857143" as="targetPoint" />
          </mxGeometry>
        </mxCell>
        <mxCell id="VGW60h7sZUECc9IYRqeE-17" value="" style="group" parent="VGW60h7sZUECc9IYRqeE-22" vertex="1" connectable="0">
          <mxGeometry x="179.998" width="77.142" height="77.14285714285715" as="geometry" />
        </mxCell>
        <mxCell id="VGW60h7sZUECc9IYRqeE-18" value="" style="endArrow=none;html=1;rounded=0;" parent="VGW60h7sZUECc9IYRqeE-17" edge="1">
          <mxGeometry width="50" height="50" relative="1" as="geometry">
            <mxPoint x="25.714" y="77.14285714285715" as="sourcePoint" />
            <mxPoint x="25.714" as="targetPoint" />
          </mxGeometry>
        </mxCell>
        <mxCell id="VGW60h7sZUECc9IYRqeE-19" value="" style="endArrow=none;html=1;rounded=0;" parent="VGW60h7sZUECc9IYRqeE-17" edge="1">
          <mxGeometry width="50" height="50" relative="1" as="geometry">
            <mxPoint x="51.428" y="77.14285714285715" as="sourcePoint" />
            <mxPoint x="51.428" as="targetPoint" />
          </mxGeometry>
        </mxCell>
        <mxCell id="VGW60h7sZUECc9IYRqeE-20" value="" style="endArrow=none;html=1;rounded=0;" parent="VGW60h7sZUECc9IYRqeE-17" edge="1">
          <mxGeometry width="50" height="50" relative="1" as="geometry">
            <mxPoint x="77.142" y="25.714285714285715" as="sourcePoint" />
            <mxPoint y="25.714285714285715" as="targetPoint" />
          </mxGeometry>
        </mxCell>
        <mxCell id="VGW60h7sZUECc9IYRqeE-21" value="" style="endArrow=none;html=1;rounded=0;" parent="VGW60h7sZUECc9IYRqeE-17" edge="1">
          <mxGeometry width="50" height="50" relative="1" as="geometry">
            <mxPoint x="77.142" y="51.42857142857143" as="sourcePoint" />
            <mxPoint y="51.42857142857143" as="targetPoint" />
          </mxGeometry>
        </mxCell>
        <mxCell id="sF0Dp-q9WW-C34XVPIgy-2" value="" style="endArrow=none;html=1;rounded=0;" edge="1" parent="VGW60h7sZUECc9IYRqeE-22">
          <mxGeometry width="50" height="50" relative="1" as="geometry">
            <mxPoint x="173.56949999999998" y="90" as="sourcePoint" />
            <mxPoint x="173.56949999999998" y="-180" as="targetPoint" />
          </mxGeometry>
        </mxCell>
        <mxCell id="VGW60h7sZUECc9IYRqeE-23" value="" style="group" parent="sF0Dp-q9WW-C34XVPIgy-6" vertex="1" connectable="0">
          <mxGeometry y="90" width="257.14" height="77.14285714285715" as="geometry" />
        </mxCell>
        <mxCell id="VGW60h7sZUECc9IYRqeE-24" value="" style="group" parent="VGW60h7sZUECc9IYRqeE-23" vertex="1" connectable="0">
          <mxGeometry width="77.142" height="77.14285714285715" as="geometry" />
        </mxCell>
        <mxCell id="VGW60h7sZUECc9IYRqeE-25" value="" style="endArrow=none;html=1;rounded=0;" parent="VGW60h7sZUECc9IYRqeE-24" edge="1">
          <mxGeometry width="50" height="50" relative="1" as="geometry">
            <mxPoint x="25.714" y="77.14285714285715" as="sourcePoint" />
            <mxPoint x="25.714" as="targetPoint" />
          </mxGeometry>
        </mxCell>
        <mxCell id="VGW60h7sZUECc9IYRqeE-26" value="" style="endArrow=none;html=1;rounded=0;" parent="VGW60h7sZUECc9IYRqeE-24" edge="1">
          <mxGeometry width="50" height="50" relative="1" as="geometry">
            <mxPoint x="51.428" y="77.14285714285715" as="sourcePoint" />
            <mxPoint x="51.428" as="targetPoint" />
          </mxGeometry>
        </mxCell>
        <mxCell id="VGW60h7sZUECc9IYRqeE-27" value="" style="endArrow=none;html=1;rounded=0;" parent="VGW60h7sZUECc9IYRqeE-24" edge="1">
          <mxGeometry width="50" height="50" relative="1" as="geometry">
            <mxPoint x="77.142" y="25.714285714285715" as="sourcePoint" />
            <mxPoint y="25.714285714285715" as="targetPoint" />
          </mxGeometry>
        </mxCell>
        <mxCell id="VGW60h7sZUECc9IYRqeE-28" value="" style="endArrow=none;html=1;rounded=0;" parent="VGW60h7sZUECc9IYRqeE-24" edge="1">
          <mxGeometry width="50" height="50" relative="1" as="geometry">
            <mxPoint x="77.142" y="51.42857142857143" as="sourcePoint" />
            <mxPoint y="51.42857142857143" as="targetPoint" />
          </mxGeometry>
        </mxCell>
        <mxCell id="VGW60h7sZUECc9IYRqeE-29" value="" style="group" parent="VGW60h7sZUECc9IYRqeE-23" vertex="1" connectable="0">
          <mxGeometry x="89.999" width="77.142" height="77.14285714285715" as="geometry" />
        </mxCell>
        <mxCell id="VGW60h7sZUECc9IYRqeE-30" value="" style="endArrow=none;html=1;rounded=0;" parent="VGW60h7sZUECc9IYRqeE-29" edge="1">
          <mxGeometry width="50" height="50" relative="1" as="geometry">
            <mxPoint x="25.714" y="77.14285714285715" as="sourcePoint" />
            <mxPoint x="25.714" as="targetPoint" />
          </mxGeometry>
        </mxCell>
        <mxCell id="VGW60h7sZUECc9IYRqeE-31" value="" style="endArrow=none;html=1;rounded=0;" parent="VGW60h7sZUECc9IYRqeE-29" edge="1">
          <mxGeometry width="50" height="50" relative="1" as="geometry">
            <mxPoint x="51.428" y="77.14285714285715" as="sourcePoint" />
            <mxPoint x="51.428" as="targetPoint" />
          </mxGeometry>
        </mxCell>
        <mxCell id="VGW60h7sZUECc9IYRqeE-32" value="" style="endArrow=none;html=1;rounded=0;" parent="VGW60h7sZUECc9IYRqeE-29" edge="1">
          <mxGeometry width="50" height="50" relative="1" as="geometry">
            <mxPoint x="77.142" y="25.714285714285715" as="sourcePoint" />
            <mxPoint y="25.714285714285715" as="targetPoint" />
          </mxGeometry>
        </mxCell>
        <mxCell id="VGW60h7sZUECc9IYRqeE-33" value="" style="endArrow=none;html=1;rounded=0;" parent="VGW60h7sZUECc9IYRqeE-29" edge="1">
          <mxGeometry width="50" height="50" relative="1" as="geometry">
            <mxPoint x="77.142" y="51.42857142857143" as="sourcePoint" />
            <mxPoint y="51.42857142857143" as="targetPoint" />
          </mxGeometry>
        </mxCell>
        <mxCell id="VGW60h7sZUECc9IYRqeE-34" value="" style="group" parent="VGW60h7sZUECc9IYRqeE-23" vertex="1" connectable="0">
          <mxGeometry x="179.998" width="77.142" height="77.14285714285715" as="geometry" />
        </mxCell>
        <mxCell id="VGW60h7sZUECc9IYRqeE-35" value="" style="endArrow=none;html=1;rounded=0;" parent="VGW60h7sZUECc9IYRqeE-34" edge="1">
          <mxGeometry width="50" height="50" relative="1" as="geometry">
            <mxPoint x="25.714" y="77.14285714285715" as="sourcePoint" />
            <mxPoint x="25.714" as="targetPoint" />
          </mxGeometry>
        </mxCell>
        <mxCell id="VGW60h7sZUECc9IYRqeE-36" value="" style="endArrow=none;html=1;rounded=0;" parent="VGW60h7sZUECc9IYRqeE-34" edge="1">
          <mxGeometry width="50" height="50" relative="1" as="geometry">
            <mxPoint x="51.428" y="77.14285714285715" as="sourcePoint" />
            <mxPoint x="51.428" as="targetPoint" />
          </mxGeometry>
        </mxCell>
        <mxCell id="VGW60h7sZUECc9IYRqeE-37" value="" style="endArrow=none;html=1;rounded=0;" parent="VGW60h7sZUECc9IYRqeE-34" edge="1">
          <mxGeometry width="50" height="50" relative="1" as="geometry">
            <mxPoint x="77.142" y="25.714285714285715" as="sourcePoint" />
            <mxPoint y="25.714285714285715" as="targetPoint" />
          </mxGeometry>
        </mxCell>
        <mxCell id="VGW60h7sZUECc9IYRqeE-38" value="" style="endArrow=none;html=1;rounded=0;" parent="VGW60h7sZUECc9IYRqeE-34" edge="1">
          <mxGeometry width="50" height="50" relative="1" as="geometry">
            <mxPoint x="77.142" y="51.42857142857143" as="sourcePoint" />
            <mxPoint y="51.42857142857143" as="targetPoint" />
          </mxGeometry>
        </mxCell>
        <mxCell id="VGW60h7sZUECc9IYRqeE-39" value="" style="group" parent="sF0Dp-q9WW-C34XVPIgy-6" vertex="1" connectable="0">
          <mxGeometry width="257.14" height="77.14285714285715" as="geometry" />
        </mxCell>
        <mxCell id="VGW60h7sZUECc9IYRqeE-40" value="" style="group" parent="VGW60h7sZUECc9IYRqeE-39" vertex="1" connectable="0">
          <mxGeometry width="77.142" height="77.14285714285715" as="geometry" />
        </mxCell>
        <mxCell id="VGW60h7sZUECc9IYRqeE-41" value="" style="endArrow=none;html=1;rounded=0;" parent="VGW60h7sZUECc9IYRqeE-40" edge="1">
          <mxGeometry width="50" height="50" relative="1" as="geometry">
            <mxPoint x="25.714" y="77.14285714285715" as="sourcePoint" />
            <mxPoint x="25.714" as="targetPoint" />
          </mxGeometry>
        </mxCell>
        <mxCell id="VGW60h7sZUECc9IYRqeE-42" value="" style="endArrow=none;html=1;rounded=0;" parent="VGW60h7sZUECc9IYRqeE-40" edge="1">
          <mxGeometry width="50" height="50" relative="1" as="geometry">
            <mxPoint x="51.428" y="77.14285714285715" as="sourcePoint" />
            <mxPoint x="51.428" as="targetPoint" />
          </mxGeometry>
        </mxCell>
        <mxCell id="VGW60h7sZUECc9IYRqeE-43" value="" style="endArrow=none;html=1;rounded=0;" parent="VGW60h7sZUECc9IYRqeE-40" edge="1">
          <mxGeometry width="50" height="50" relative="1" as="geometry">
            <mxPoint x="77.142" y="25.714285714285715" as="sourcePoint" />
            <mxPoint y="25.714285714285715" as="targetPoint" />
          </mxGeometry>
        </mxCell>
        <mxCell id="VGW60h7sZUECc9IYRqeE-44" value="" style="endArrow=none;html=1;rounded=0;" parent="VGW60h7sZUECc9IYRqeE-40" edge="1">
          <mxGeometry width="50" height="50" relative="1" as="geometry">
            <mxPoint x="77.142" y="51.42857142857143" as="sourcePoint" />
            <mxPoint y="51.42857142857143" as="targetPoint" />
          </mxGeometry>
        </mxCell>
        <mxCell id="VGW60h7sZUECc9IYRqeE-45" value="" style="group" parent="VGW60h7sZUECc9IYRqeE-39" vertex="1" connectable="0">
          <mxGeometry x="89.999" width="77.142" height="77.14285714285715" as="geometry" />
        </mxCell>
        <mxCell id="VGW60h7sZUECc9IYRqeE-46" value="" style="endArrow=none;html=1;rounded=0;" parent="VGW60h7sZUECc9IYRqeE-45" edge="1">
          <mxGeometry width="50" height="50" relative="1" as="geometry">
            <mxPoint x="25.714" y="77.14285714285715" as="sourcePoint" />
            <mxPoint x="25.714" as="targetPoint" />
          </mxGeometry>
        </mxCell>
        <mxCell id="VGW60h7sZUECc9IYRqeE-47" value="" style="endArrow=none;html=1;rounded=0;" parent="VGW60h7sZUECc9IYRqeE-45" edge="1">
          <mxGeometry width="50" height="50" relative="1" as="geometry">
            <mxPoint x="51.428" y="77.14285714285715" as="sourcePoint" />
            <mxPoint x="51.428" as="targetPoint" />
          </mxGeometry>
        </mxCell>
        <mxCell id="VGW60h7sZUECc9IYRqeE-48" value="" style="endArrow=none;html=1;rounded=0;" parent="VGW60h7sZUECc9IYRqeE-45" edge="1">
          <mxGeometry width="50" height="50" relative="1" as="geometry">
            <mxPoint x="77.142" y="25.714285714285715" as="sourcePoint" />
            <mxPoint y="25.714285714285715" as="targetPoint" />
          </mxGeometry>
        </mxCell>
        <mxCell id="VGW60h7sZUECc9IYRqeE-49" value="" style="endArrow=none;html=1;rounded=0;" parent="VGW60h7sZUECc9IYRqeE-45" edge="1">
          <mxGeometry width="50" height="50" relative="1" as="geometry">
            <mxPoint x="77.142" y="51.42857142857143" as="sourcePoint" />
            <mxPoint y="51.42857142857143" as="targetPoint" />
          </mxGeometry>
        </mxCell>
        <mxCell id="VGW60h7sZUECc9IYRqeE-50" value="" style="group" parent="VGW60h7sZUECc9IYRqeE-39" vertex="1" connectable="0">
          <mxGeometry x="179.998" width="77.142" height="77.14285714285715" as="geometry" />
        </mxCell>
        <mxCell id="VGW60h7sZUECc9IYRqeE-51" value="" style="endArrow=none;html=1;rounded=0;" parent="VGW60h7sZUECc9IYRqeE-50" edge="1">
          <mxGeometry width="50" height="50" relative="1" as="geometry">
            <mxPoint x="25.714" y="77.14285714285715" as="sourcePoint" />
            <mxPoint x="25.714" as="targetPoint" />
          </mxGeometry>
        </mxCell>
        <mxCell id="VGW60h7sZUECc9IYRqeE-52" value="" style="endArrow=none;html=1;rounded=0;" parent="VGW60h7sZUECc9IYRqeE-50" edge="1">
          <mxGeometry width="50" height="50" relative="1" as="geometry">
            <mxPoint x="51.428" y="77.14285714285715" as="sourcePoint" />
            <mxPoint x="51.428" as="targetPoint" />
          </mxGeometry>
        </mxCell>
        <mxCell id="VGW60h7sZUECc9IYRqeE-53" value="" style="endArrow=none;html=1;rounded=0;" parent="VGW60h7sZUECc9IYRqeE-50" edge="1">
          <mxGeometry width="50" height="50" relative="1" as="geometry">
            <mxPoint x="77.142" y="25.714285714285715" as="sourcePoint" />
            <mxPoint y="25.714285714285715" as="targetPoint" />
          </mxGeometry>
        </mxCell>
        <mxCell id="VGW60h7sZUECc9IYRqeE-54" value="" style="endArrow=none;html=1;rounded=0;" parent="VGW60h7sZUECc9IYRqeE-50" edge="1">
          <mxGeometry width="50" height="50" relative="1" as="geometry">
            <mxPoint x="77.142" y="51.42857142857143" as="sourcePoint" />
            <mxPoint y="51.42857142857143" as="targetPoint" />
          </mxGeometry>
        </mxCell>
        <mxCell id="sF0Dp-q9WW-C34XVPIgy-1" value="" style="endArrow=none;html=1;rounded=0;" edge="1" parent="sF0Dp-q9WW-C34XVPIgy-6">
          <mxGeometry width="50" height="50" relative="1" as="geometry">
            <mxPoint x="83.5705" y="270" as="sourcePoint" />
            <mxPoint x="83.5705" as="targetPoint" />
          </mxGeometry>
        </mxCell>
        <mxCell id="sF0Dp-q9WW-C34XVPIgy-3" value="" style="endArrow=none;html=1;rounded=0;" edge="1" parent="sF0Dp-q9WW-C34XVPIgy-6">
          <mxGeometry width="50" height="50" relative="1" as="geometry">
            <mxPoint y="83.57142857142858" as="sourcePoint" />
            <mxPoint x="257.14" y="83.57142857142858" as="targetPoint" />
          </mxGeometry>
        </mxCell>
        <mxCell id="sF0Dp-q9WW-C34XVPIgy-4" value="" style="endArrow=none;html=1;rounded=0;" edge="1" parent="sF0Dp-q9WW-C34XVPIgy-6">
          <mxGeometry width="50" height="50" relative="1" as="geometry">
            <mxPoint y="173.57142857142858" as="sourcePoint" />
            <mxPoint x="257.14" y="173.57142857142858" as="targetPoint" />
          </mxGeometry>
        </mxCell>
        <mxCell id="sF0Dp-q9WW-C34XVPIgy-7" value="" style="group" vertex="1" connectable="0" parent="1">
          <mxGeometry x="285" width="257.14" height="270" as="geometry" />
        </mxCell>
        <mxCell id="sF0Dp-q9WW-C34XVPIgy-8" value="" style="group" vertex="1" connectable="0" parent="sF0Dp-q9WW-C34XVPIgy-7">
          <mxGeometry y="180" width="257.14" height="77.14285714285715" as="geometry" />
        </mxCell>
        <mxCell id="sF0Dp-q9WW-C34XVPIgy-9" value="" style="group" vertex="1" connectable="0" parent="sF0Dp-q9WW-C34XVPIgy-8">
          <mxGeometry width="77.142" height="77.14285714285715" as="geometry" />
        </mxCell>
        <mxCell id="sF0Dp-q9WW-C34XVPIgy-10" value="" style="endArrow=none;html=1;rounded=0;" edge="1" parent="sF0Dp-q9WW-C34XVPIgy-9">
          <mxGeometry width="50" height="50" relative="1" as="geometry">
            <mxPoint x="25.714" y="77.14285714285715" as="sourcePoint" />
            <mxPoint x="25.714" as="targetPoint" />
          </mxGeometry>
        </mxCell>
        <mxCell id="sF0Dp-q9WW-C34XVPIgy-11" value="" style="endArrow=none;html=1;rounded=0;" edge="1" parent="sF0Dp-q9WW-C34XVPIgy-9">
          <mxGeometry width="50" height="50" relative="1" as="geometry">
            <mxPoint x="51.428" y="77.14285714285715" as="sourcePoint" />
            <mxPoint x="51.428" as="targetPoint" />
          </mxGeometry>
        </mxCell>
        <mxCell id="sF0Dp-q9WW-C34XVPIgy-12" value="" style="endArrow=none;html=1;rounded=0;" edge="1" parent="sF0Dp-q9WW-C34XVPIgy-9">
          <mxGeometry width="50" height="50" relative="1" as="geometry">
            <mxPoint x="77.142" y="25.714285714285715" as="sourcePoint" />
            <mxPoint y="25.714285714285715" as="targetPoint" />
          </mxGeometry>
        </mxCell>
        <mxCell id="sF0Dp-q9WW-C34XVPIgy-13" value="" style="endArrow=none;html=1;rounded=0;" edge="1" parent="sF0Dp-q9WW-C34XVPIgy-9">
          <mxGeometry width="50" height="50" relative="1" as="geometry">
            <mxPoint x="77.142" y="51.42857142857143" as="sourcePoint" />
            <mxPoint y="51.42857142857143" as="targetPoint" />
          </mxGeometry>
        </mxCell>
        <mxCell id="sF0Dp-q9WW-C34XVPIgy-14" value="" style="group" vertex="1" connectable="0" parent="sF0Dp-q9WW-C34XVPIgy-8">
          <mxGeometry x="89.999" width="77.142" height="77.14285714285715" as="geometry" />
        </mxCell>
        <mxCell id="sF0Dp-q9WW-C34XVPIgy-15" value="" style="endArrow=none;html=1;rounded=0;" edge="1" parent="sF0Dp-q9WW-C34XVPIgy-14">
          <mxGeometry width="50" height="50" relative="1" as="geometry">
            <mxPoint x="25.714" y="77.14285714285715" as="sourcePoint" />
            <mxPoint x="25.714" as="targetPoint" />
          </mxGeometry>
        </mxCell>
        <mxCell id="sF0Dp-q9WW-C34XVPIgy-16" value="" style="endArrow=none;html=1;rounded=0;" edge="1" parent="sF0Dp-q9WW-C34XVPIgy-14">
          <mxGeometry width="50" height="50" relative="1" as="geometry">
            <mxPoint x="51.428" y="77.14285714285715" as="sourcePoint" />
            <mxPoint x="51.428" as="targetPoint" />
          </mxGeometry>
        </mxCell>
        <mxCell id="sF0Dp-q9WW-C34XVPIgy-17" value="" style="endArrow=none;html=1;rounded=0;" edge="1" parent="sF0Dp-q9WW-C34XVPIgy-14">
          <mxGeometry width="50" height="50" relative="1" as="geometry">
            <mxPoint x="77.142" y="25.714285714285715" as="sourcePoint" />
            <mxPoint y="25.714285714285715" as="targetPoint" />
          </mxGeometry>
        </mxCell>
        <mxCell id="sF0Dp-q9WW-C34XVPIgy-18" value="" style="endArrow=none;html=1;rounded=0;" edge="1" parent="sF0Dp-q9WW-C34XVPIgy-14">
          <mxGeometry width="50" height="50" relative="1" as="geometry">
            <mxPoint x="77.142" y="51.42857142857143" as="sourcePoint" />
            <mxPoint y="51.42857142857143" as="targetPoint" />
          </mxGeometry>
        </mxCell>
        <mxCell id="sF0Dp-q9WW-C34XVPIgy-19" value="" style="group" vertex="1" connectable="0" parent="sF0Dp-q9WW-C34XVPIgy-8">
          <mxGeometry x="179.998" width="77.142" height="77.14285714285715" as="geometry" />
        </mxCell>
        <mxCell id="sF0Dp-q9WW-C34XVPIgy-20" value="" style="endArrow=none;html=1;rounded=0;" edge="1" parent="sF0Dp-q9WW-C34XVPIgy-19">
          <mxGeometry width="50" height="50" relative="1" as="geometry">
            <mxPoint x="25.714" y="77.14285714285715" as="sourcePoint" />
            <mxPoint x="25.714" as="targetPoint" />
          </mxGeometry>
        </mxCell>
        <mxCell id="sF0Dp-q9WW-C34XVPIgy-21" value="" style="endArrow=none;html=1;rounded=0;" edge="1" parent="sF0Dp-q9WW-C34XVPIgy-19">
          <mxGeometry width="50" height="50" relative="1" as="geometry">
            <mxPoint x="51.428" y="77.14285714285715" as="sourcePoint" />
            <mxPoint x="51.428" as="targetPoint" />
          </mxGeometry>
        </mxCell>
        <mxCell id="sF0Dp-q9WW-C34XVPIgy-22" value="" style="endArrow=none;html=1;rounded=0;" edge="1" parent="sF0Dp-q9WW-C34XVPIgy-19">
          <mxGeometry width="50" height="50" relative="1" as="geometry">
            <mxPoint x="77.142" y="25.714285714285715" as="sourcePoint" />
            <mxPoint y="25.714285714285715" as="targetPoint" />
          </mxGeometry>
        </mxCell>
        <mxCell id="sF0Dp-q9WW-C34XVPIgy-23" value="" style="endArrow=none;html=1;rounded=0;" edge="1" parent="sF0Dp-q9WW-C34XVPIgy-19">
          <mxGeometry width="50" height="50" relative="1" as="geometry">
            <mxPoint x="77.142" y="51.42857142857143" as="sourcePoint" />
            <mxPoint y="51.42857142857143" as="targetPoint" />
          </mxGeometry>
        </mxCell>
        <mxCell id="sF0Dp-q9WW-C34XVPIgy-24" value="" style="endArrow=none;html=1;rounded=0;" edge="1" parent="sF0Dp-q9WW-C34XVPIgy-8">
          <mxGeometry width="50" height="50" relative="1" as="geometry">
            <mxPoint x="173.56949999999998" y="90" as="sourcePoint" />
            <mxPoint x="173.56949999999998" y="-180" as="targetPoint" />
          </mxGeometry>
        </mxCell>
        <mxCell id="sF0Dp-q9WW-C34XVPIgy-25" value="" style="group" vertex="1" connectable="0" parent="sF0Dp-q9WW-C34XVPIgy-7">
          <mxGeometry y="90" width="257.14" height="77.14285714285715" as="geometry" />
        </mxCell>
        <mxCell id="sF0Dp-q9WW-C34XVPIgy-26" value="" style="group" vertex="1" connectable="0" parent="sF0Dp-q9WW-C34XVPIgy-25">
          <mxGeometry width="77.142" height="77.14285714285715" as="geometry" />
        </mxCell>
        <mxCell id="sF0Dp-q9WW-C34XVPIgy-27" value="" style="endArrow=none;html=1;rounded=0;" edge="1" parent="sF0Dp-q9WW-C34XVPIgy-26">
          <mxGeometry width="50" height="50" relative="1" as="geometry">
            <mxPoint x="25.714" y="77.14285714285715" as="sourcePoint" />
            <mxPoint x="25.714" as="targetPoint" />
          </mxGeometry>
        </mxCell>
        <mxCell id="sF0Dp-q9WW-C34XVPIgy-28" value="" style="endArrow=none;html=1;rounded=0;" edge="1" parent="sF0Dp-q9WW-C34XVPIgy-26">
          <mxGeometry width="50" height="50" relative="1" as="geometry">
            <mxPoint x="51.428" y="77.14285714285715" as="sourcePoint" />
            <mxPoint x="51.428" as="targetPoint" />
          </mxGeometry>
        </mxCell>
        <mxCell id="sF0Dp-q9WW-C34XVPIgy-29" value="" style="endArrow=none;html=1;rounded=0;" edge="1" parent="sF0Dp-q9WW-C34XVPIgy-26">
          <mxGeometry width="50" height="50" relative="1" as="geometry">
            <mxPoint x="77.142" y="25.714285714285715" as="sourcePoint" />
            <mxPoint y="25.714285714285715" as="targetPoint" />
          </mxGeometry>
        </mxCell>
        <mxCell id="sF0Dp-q9WW-C34XVPIgy-30" value="" style="endArrow=none;html=1;rounded=0;" edge="1" parent="sF0Dp-q9WW-C34XVPIgy-26">
          <mxGeometry width="50" height="50" relative="1" as="geometry">
            <mxPoint x="77.142" y="51.42857142857143" as="sourcePoint" />
            <mxPoint y="51.42857142857143" as="targetPoint" />
          </mxGeometry>
        </mxCell>
        <mxCell id="sF0Dp-q9WW-C34XVPIgy-31" value="" style="group" vertex="1" connectable="0" parent="sF0Dp-q9WW-C34XVPIgy-25">
          <mxGeometry x="89.999" width="77.142" height="77.14285714285715" as="geometry" />
        </mxCell>
        <mxCell id="sF0Dp-q9WW-C34XVPIgy-32" value="" style="endArrow=none;html=1;rounded=0;" edge="1" parent="sF0Dp-q9WW-C34XVPIgy-31">
          <mxGeometry width="50" height="50" relative="1" as="geometry">
            <mxPoint x="25.714" y="77.14285714285715" as="sourcePoint" />
            <mxPoint x="25.714" as="targetPoint" />
          </mxGeometry>
        </mxCell>
        <mxCell id="sF0Dp-q9WW-C34XVPIgy-33" value="" style="endArrow=none;html=1;rounded=0;" edge="1" parent="sF0Dp-q9WW-C34XVPIgy-31">
          <mxGeometry width="50" height="50" relative="1" as="geometry">
            <mxPoint x="51.428" y="77.14285714285715" as="sourcePoint" />
            <mxPoint x="51.428" as="targetPoint" />
          </mxGeometry>
        </mxCell>
        <mxCell id="sF0Dp-q9WW-C34XVPIgy-34" value="" style="endArrow=none;html=1;rounded=0;" edge="1" parent="sF0Dp-q9WW-C34XVPIgy-31">
          <mxGeometry width="50" height="50" relative="1" as="geometry">
            <mxPoint x="77.142" y="25.714285714285715" as="sourcePoint" />
            <mxPoint y="25.714285714285715" as="targetPoint" />
          </mxGeometry>
        </mxCell>
        <mxCell id="sF0Dp-q9WW-C34XVPIgy-35" value="" style="endArrow=none;html=1;rounded=0;" edge="1" parent="sF0Dp-q9WW-C34XVPIgy-31">
          <mxGeometry width="50" height="50" relative="1" as="geometry">
            <mxPoint x="77.142" y="51.42857142857143" as="sourcePoint" />
            <mxPoint y="51.42857142857143" as="targetPoint" />
          </mxGeometry>
        </mxCell>
        <mxCell id="sF0Dp-q9WW-C34XVPIgy-36" value="" style="group" vertex="1" connectable="0" parent="sF0Dp-q9WW-C34XVPIgy-25">
          <mxGeometry x="179.998" width="77.142" height="77.14285714285715" as="geometry" />
        </mxCell>
        <mxCell id="sF0Dp-q9WW-C34XVPIgy-37" value="" style="endArrow=none;html=1;rounded=0;" edge="1" parent="sF0Dp-q9WW-C34XVPIgy-36">
          <mxGeometry width="50" height="50" relative="1" as="geometry">
            <mxPoint x="25.714" y="77.14285714285715" as="sourcePoint" />
            <mxPoint x="25.714" as="targetPoint" />
          </mxGeometry>
        </mxCell>
        <mxCell id="sF0Dp-q9WW-C34XVPIgy-38" value="" style="endArrow=none;html=1;rounded=0;" edge="1" parent="sF0Dp-q9WW-C34XVPIgy-36">
          <mxGeometry width="50" height="50" relative="1" as="geometry">
            <mxPoint x="51.428" y="77.14285714285715" as="sourcePoint" />
            <mxPoint x="51.428" as="targetPoint" />
          </mxGeometry>
        </mxCell>
        <mxCell id="sF0Dp-q9WW-C34XVPIgy-39" value="" style="endArrow=none;html=1;rounded=0;" edge="1" parent="sF0Dp-q9WW-C34XVPIgy-36">
          <mxGeometry width="50" height="50" relative="1" as="geometry">
            <mxPoint x="77.142" y="25.714285714285715" as="sourcePoint" />
            <mxPoint y="25.714285714285715" as="targetPoint" />
          </mxGeometry>
        </mxCell>
        <mxCell id="sF0Dp-q9WW-C34XVPIgy-40" value="" style="endArrow=none;html=1;rounded=0;" edge="1" parent="sF0Dp-q9WW-C34XVPIgy-36">
          <mxGeometry width="50" height="50" relative="1" as="geometry">
            <mxPoint x="77.142" y="51.42857142857143" as="sourcePoint" />
            <mxPoint y="51.42857142857143" as="targetPoint" />
          </mxGeometry>
        </mxCell>
        <mxCell id="sF0Dp-q9WW-C34XVPIgy-41" value="" style="group" vertex="1" connectable="0" parent="sF0Dp-q9WW-C34XVPIgy-7">
          <mxGeometry width="257.14" height="77.14285714285715" as="geometry" />
        </mxCell>
        <mxCell id="sF0Dp-q9WW-C34XVPIgy-42" value="" style="group" vertex="1" connectable="0" parent="sF0Dp-q9WW-C34XVPIgy-41">
          <mxGeometry width="77.142" height="77.14285714285715" as="geometry" />
        </mxCell>
        <mxCell id="sF0Dp-q9WW-C34XVPIgy-43" value="" style="endArrow=none;html=1;rounded=0;" edge="1" parent="sF0Dp-q9WW-C34XVPIgy-42">
          <mxGeometry width="50" height="50" relative="1" as="geometry">
            <mxPoint x="25.714" y="77.14285714285715" as="sourcePoint" />
            <mxPoint x="25.714" as="targetPoint" />
          </mxGeometry>
        </mxCell>
        <mxCell id="sF0Dp-q9WW-C34XVPIgy-44" value="" style="endArrow=none;html=1;rounded=0;" edge="1" parent="sF0Dp-q9WW-C34XVPIgy-42">
          <mxGeometry width="50" height="50" relative="1" as="geometry">
            <mxPoint x="51.428" y="77.14285714285715" as="sourcePoint" />
            <mxPoint x="51.428" as="targetPoint" />
          </mxGeometry>
        </mxCell>
        <mxCell id="sF0Dp-q9WW-C34XVPIgy-45" value="" style="endArrow=none;html=1;rounded=0;" edge="1" parent="sF0Dp-q9WW-C34XVPIgy-42">
          <mxGeometry width="50" height="50" relative="1" as="geometry">
            <mxPoint x="77.142" y="25.714285714285715" as="sourcePoint" />
            <mxPoint y="25.714285714285715" as="targetPoint" />
          </mxGeometry>
        </mxCell>
        <mxCell id="sF0Dp-q9WW-C34XVPIgy-46" value="" style="endArrow=none;html=1;rounded=0;" edge="1" parent="sF0Dp-q9WW-C34XVPIgy-42">
          <mxGeometry width="50" height="50" relative="1" as="geometry">
            <mxPoint x="77.142" y="51.42857142857143" as="sourcePoint" />
            <mxPoint y="51.42857142857143" as="targetPoint" />
          </mxGeometry>
        </mxCell>
        <mxCell id="sF0Dp-q9WW-C34XVPIgy-47" value="" style="group" vertex="1" connectable="0" parent="sF0Dp-q9WW-C34XVPIgy-41">
          <mxGeometry x="89.999" width="77.142" height="77.14285714285715" as="geometry" />
        </mxCell>
        <mxCell id="sF0Dp-q9WW-C34XVPIgy-48" value="" style="endArrow=none;html=1;rounded=0;" edge="1" parent="sF0Dp-q9WW-C34XVPIgy-47">
          <mxGeometry width="50" height="50" relative="1" as="geometry">
            <mxPoint x="25.714" y="77.14285714285715" as="sourcePoint" />
            <mxPoint x="25.714" as="targetPoint" />
          </mxGeometry>
        </mxCell>
        <mxCell id="sF0Dp-q9WW-C34XVPIgy-49" value="" style="endArrow=none;html=1;rounded=0;" edge="1" parent="sF0Dp-q9WW-C34XVPIgy-47">
          <mxGeometry width="50" height="50" relative="1" as="geometry">
            <mxPoint x="51.428" y="77.14285714285715" as="sourcePoint" />
            <mxPoint x="51.428" as="targetPoint" />
          </mxGeometry>
        </mxCell>
        <mxCell id="sF0Dp-q9WW-C34XVPIgy-50" value="" style="endArrow=none;html=1;rounded=0;" edge="1" parent="sF0Dp-q9WW-C34XVPIgy-47">
          <mxGeometry width="50" height="50" relative="1" as="geometry">
            <mxPoint x="77.142" y="25.714285714285715" as="sourcePoint" />
            <mxPoint y="25.714285714285715" as="targetPoint" />
          </mxGeometry>
        </mxCell>
        <mxCell id="sF0Dp-q9WW-C34XVPIgy-51" value="" style="endArrow=none;html=1;rounded=0;" edge="1" parent="sF0Dp-q9WW-C34XVPIgy-47">
          <mxGeometry width="50" height="50" relative="1" as="geometry">
            <mxPoint x="77.142" y="51.42857142857143" as="sourcePoint" />
            <mxPoint y="51.42857142857143" as="targetPoint" />
          </mxGeometry>
        </mxCell>
        <mxCell id="sF0Dp-q9WW-C34XVPIgy-52" value="" style="group" vertex="1" connectable="0" parent="sF0Dp-q9WW-C34XVPIgy-41">
          <mxGeometry x="179.998" width="77.142" height="77.14285714285715" as="geometry" />
        </mxCell>
        <mxCell id="sF0Dp-q9WW-C34XVPIgy-53" value="" style="endArrow=none;html=1;rounded=0;" edge="1" parent="sF0Dp-q9WW-C34XVPIgy-52">
          <mxGeometry width="50" height="50" relative="1" as="geometry">
            <mxPoint x="25.714" y="77.14285714285715" as="sourcePoint" />
            <mxPoint x="25.714" as="targetPoint" />
          </mxGeometry>
        </mxCell>
        <mxCell id="sF0Dp-q9WW-C34XVPIgy-54" value="" style="endArrow=none;html=1;rounded=0;" edge="1" parent="sF0Dp-q9WW-C34XVPIgy-52">
          <mxGeometry width="50" height="50" relative="1" as="geometry">
            <mxPoint x="51.428" y="77.14285714285715" as="sourcePoint" />
            <mxPoint x="51.428" as="targetPoint" />
          </mxGeometry>
        </mxCell>
        <mxCell id="sF0Dp-q9WW-C34XVPIgy-55" value="" style="endArrow=none;html=1;rounded=0;" edge="1" parent="sF0Dp-q9WW-C34XVPIgy-52">
          <mxGeometry width="50" height="50" relative="1" as="geometry">
            <mxPoint x="77.142" y="25.714285714285715" as="sourcePoint" />
            <mxPoint y="25.714285714285715" as="targetPoint" />
          </mxGeometry>
        </mxCell>
        <mxCell id="sF0Dp-q9WW-C34XVPIgy-56" value="" style="endArrow=none;html=1;rounded=0;" edge="1" parent="sF0Dp-q9WW-C34XVPIgy-52">
          <mxGeometry width="50" height="50" relative="1" as="geometry">
            <mxPoint x="77.142" y="51.42857142857143" as="sourcePoint" />
            <mxPoint y="51.42857142857143" as="targetPoint" />
          </mxGeometry>
        </mxCell>
        <mxCell id="sF0Dp-q9WW-C34XVPIgy-57" value="" style="endArrow=none;html=1;rounded=0;" edge="1" parent="sF0Dp-q9WW-C34XVPIgy-7">
          <mxGeometry width="50" height="50" relative="1" as="geometry">
            <mxPoint x="83.5705" y="270" as="sourcePoint" />
            <mxPoint x="83.5705" as="targetPoint" />
          </mxGeometry>
        </mxCell>
        <mxCell id="sF0Dp-q9WW-C34XVPIgy-58" value="" style="endArrow=none;html=1;rounded=0;" edge="1" parent="sF0Dp-q9WW-C34XVPIgy-7">
          <mxGeometry width="50" height="50" relative="1" as="geometry">
            <mxPoint y="83.57142857142858" as="sourcePoint" />
            <mxPoint x="257.14" y="83.57142857142858" as="targetPoint" />
          </mxGeometry>
        </mxCell>
        <mxCell id="sF0Dp-q9WW-C34XVPIgy-59" value="" style="endArrow=none;html=1;rounded=0;" edge="1" parent="sF0Dp-q9WW-C34XVPIgy-7">
          <mxGeometry width="50" height="50" relative="1" as="geometry">
            <mxPoint y="173.57142857142858" as="sourcePoint" />
            <mxPoint x="257.14" y="173.57142857142858" as="targetPoint" />
          </mxGeometry>
        </mxCell>
        <mxCell id="sF0Dp-q9WW-C34XVPIgy-60" value="" style="group" vertex="1" connectable="0" parent="1">
          <mxGeometry x="560" width="257.14" height="270" as="geometry" />
        </mxCell>
        <mxCell id="sF0Dp-q9WW-C34XVPIgy-61" value="" style="group" vertex="1" connectable="0" parent="sF0Dp-q9WW-C34XVPIgy-60">
          <mxGeometry y="180" width="257.14" height="77.14285714285715" as="geometry" />
        </mxCell>
        <mxCell id="sF0Dp-q9WW-C34XVPIgy-62" value="" style="group" vertex="1" connectable="0" parent="sF0Dp-q9WW-C34XVPIgy-61">
          <mxGeometry width="77.142" height="77.14285714285715" as="geometry" />
        </mxCell>
        <mxCell id="sF0Dp-q9WW-C34XVPIgy-63" value="" style="endArrow=none;html=1;rounded=0;" edge="1" parent="sF0Dp-q9WW-C34XVPIgy-62">
          <mxGeometry width="50" height="50" relative="1" as="geometry">
            <mxPoint x="25.714" y="77.14285714285715" as="sourcePoint" />
            <mxPoint x="25.714" as="targetPoint" />
          </mxGeometry>
        </mxCell>
        <mxCell id="sF0Dp-q9WW-C34XVPIgy-64" value="" style="endArrow=none;html=1;rounded=0;" edge="1" parent="sF0Dp-q9WW-C34XVPIgy-62">
          <mxGeometry width="50" height="50" relative="1" as="geometry">
            <mxPoint x="51.428" y="77.14285714285715" as="sourcePoint" />
            <mxPoint x="51.428" as="targetPoint" />
          </mxGeometry>
        </mxCell>
        <mxCell id="sF0Dp-q9WW-C34XVPIgy-65" value="" style="endArrow=none;html=1;rounded=0;" edge="1" parent="sF0Dp-q9WW-C34XVPIgy-62">
          <mxGeometry width="50" height="50" relative="1" as="geometry">
            <mxPoint x="77.142" y="25.714285714285715" as="sourcePoint" />
            <mxPoint y="25.714285714285715" as="targetPoint" />
          </mxGeometry>
        </mxCell>
        <mxCell id="sF0Dp-q9WW-C34XVPIgy-66" value="" style="endArrow=none;html=1;rounded=0;" edge="1" parent="sF0Dp-q9WW-C34XVPIgy-62">
          <mxGeometry width="50" height="50" relative="1" as="geometry">
            <mxPoint x="77.142" y="51.42857142857143" as="sourcePoint" />
            <mxPoint y="51.42857142857143" as="targetPoint" />
          </mxGeometry>
        </mxCell>
        <mxCell id="sF0Dp-q9WW-C34XVPIgy-67" value="" style="group" vertex="1" connectable="0" parent="sF0Dp-q9WW-C34XVPIgy-61">
          <mxGeometry x="89.999" width="77.142" height="77.14285714285715" as="geometry" />
        </mxCell>
        <mxCell id="sF0Dp-q9WW-C34XVPIgy-68" value="" style="endArrow=none;html=1;rounded=0;" edge="1" parent="sF0Dp-q9WW-C34XVPIgy-67">
          <mxGeometry width="50" height="50" relative="1" as="geometry">
            <mxPoint x="25.714" y="77.14285714285715" as="sourcePoint" />
            <mxPoint x="25.714" as="targetPoint" />
          </mxGeometry>
        </mxCell>
        <mxCell id="sF0Dp-q9WW-C34XVPIgy-69" value="" style="endArrow=none;html=1;rounded=0;" edge="1" parent="sF0Dp-q9WW-C34XVPIgy-67">
          <mxGeometry width="50" height="50" relative="1" as="geometry">
            <mxPoint x="51.428" y="77.14285714285715" as="sourcePoint" />
            <mxPoint x="51.428" as="targetPoint" />
          </mxGeometry>
        </mxCell>
        <mxCell id="sF0Dp-q9WW-C34XVPIgy-70" value="" style="endArrow=none;html=1;rounded=0;" edge="1" parent="sF0Dp-q9WW-C34XVPIgy-67">
          <mxGeometry width="50" height="50" relative="1" as="geometry">
            <mxPoint x="77.142" y="25.714285714285715" as="sourcePoint" />
            <mxPoint y="25.714285714285715" as="targetPoint" />
          </mxGeometry>
        </mxCell>
        <mxCell id="sF0Dp-q9WW-C34XVPIgy-71" value="" style="endArrow=none;html=1;rounded=0;" edge="1" parent="sF0Dp-q9WW-C34XVPIgy-67">
          <mxGeometry width="50" height="50" relative="1" as="geometry">
            <mxPoint x="77.142" y="51.42857142857143" as="sourcePoint" />
            <mxPoint y="51.42857142857143" as="targetPoint" />
          </mxGeometry>
        </mxCell>
        <mxCell id="sF0Dp-q9WW-C34XVPIgy-72" value="" style="group" vertex="1" connectable="0" parent="sF0Dp-q9WW-C34XVPIgy-61">
          <mxGeometry x="179.998" width="77.142" height="77.14285714285715" as="geometry" />
        </mxCell>
        <mxCell id="sF0Dp-q9WW-C34XVPIgy-73" value="" style="endArrow=none;html=1;rounded=0;" edge="1" parent="sF0Dp-q9WW-C34XVPIgy-72">
          <mxGeometry width="50" height="50" relative="1" as="geometry">
            <mxPoint x="25.714" y="77.14285714285715" as="sourcePoint" />
            <mxPoint x="25.714" as="targetPoint" />
          </mxGeometry>
        </mxCell>
        <mxCell id="sF0Dp-q9WW-C34XVPIgy-74" value="" style="endArrow=none;html=1;rounded=0;" edge="1" parent="sF0Dp-q9WW-C34XVPIgy-72">
          <mxGeometry width="50" height="50" relative="1" as="geometry">
            <mxPoint x="51.428" y="77.14285714285715" as="sourcePoint" />
            <mxPoint x="51.428" as="targetPoint" />
          </mxGeometry>
        </mxCell>
        <mxCell id="sF0Dp-q9WW-C34XVPIgy-75" value="" style="endArrow=none;html=1;rounded=0;" edge="1" parent="sF0Dp-q9WW-C34XVPIgy-72">
          <mxGeometry width="50" height="50" relative="1" as="geometry">
            <mxPoint x="77.142" y="25.714285714285715" as="sourcePoint" />
            <mxPoint y="25.714285714285715" as="targetPoint" />
          </mxGeometry>
        </mxCell>
        <mxCell id="sF0Dp-q9WW-C34XVPIgy-76" value="" style="endArrow=none;html=1;rounded=0;" edge="1" parent="sF0Dp-q9WW-C34XVPIgy-72">
          <mxGeometry width="50" height="50" relative="1" as="geometry">
            <mxPoint x="77.142" y="51.42857142857143" as="sourcePoint" />
            <mxPoint y="51.42857142857143" as="targetPoint" />
          </mxGeometry>
        </mxCell>
        <mxCell id="sF0Dp-q9WW-C34XVPIgy-77" value="" style="endArrow=none;html=1;rounded=0;" edge="1" parent="sF0Dp-q9WW-C34XVPIgy-61">
          <mxGeometry width="50" height="50" relative="1" as="geometry">
            <mxPoint x="173.56949999999998" y="90" as="sourcePoint" />
            <mxPoint x="173.56949999999998" y="-180" as="targetPoint" />
          </mxGeometry>
        </mxCell>
        <mxCell id="sF0Dp-q9WW-C34XVPIgy-78" value="" style="group" vertex="1" connectable="0" parent="sF0Dp-q9WW-C34XVPIgy-60">
          <mxGeometry y="90" width="257.14" height="77.14285714285715" as="geometry" />
        </mxCell>
        <mxCell id="sF0Dp-q9WW-C34XVPIgy-79" value="" style="group" vertex="1" connectable="0" parent="sF0Dp-q9WW-C34XVPIgy-78">
          <mxGeometry width="77.142" height="77.14285714285715" as="geometry" />
        </mxCell>
        <mxCell id="sF0Dp-q9WW-C34XVPIgy-80" value="" style="endArrow=none;html=1;rounded=0;" edge="1" parent="sF0Dp-q9WW-C34XVPIgy-79">
          <mxGeometry width="50" height="50" relative="1" as="geometry">
            <mxPoint x="25.714" y="77.14285714285715" as="sourcePoint" />
            <mxPoint x="25.714" as="targetPoint" />
          </mxGeometry>
        </mxCell>
        <mxCell id="sF0Dp-q9WW-C34XVPIgy-81" value="" style="endArrow=none;html=1;rounded=0;" edge="1" parent="sF0Dp-q9WW-C34XVPIgy-79">
          <mxGeometry width="50" height="50" relative="1" as="geometry">
            <mxPoint x="51.428" y="77.14285714285715" as="sourcePoint" />
            <mxPoint x="51.428" as="targetPoint" />
          </mxGeometry>
        </mxCell>
        <mxCell id="sF0Dp-q9WW-C34XVPIgy-82" value="" style="endArrow=none;html=1;rounded=0;" edge="1" parent="sF0Dp-q9WW-C34XVPIgy-79">
          <mxGeometry width="50" height="50" relative="1" as="geometry">
            <mxPoint x="77.142" y="25.714285714285715" as="sourcePoint" />
            <mxPoint y="25.714285714285715" as="targetPoint" />
          </mxGeometry>
        </mxCell>
        <mxCell id="sF0Dp-q9WW-C34XVPIgy-83" value="" style="endArrow=none;html=1;rounded=0;" edge="1" parent="sF0Dp-q9WW-C34XVPIgy-79">
          <mxGeometry width="50" height="50" relative="1" as="geometry">
            <mxPoint x="77.142" y="51.42857142857143" as="sourcePoint" />
            <mxPoint y="51.42857142857143" as="targetPoint" />
          </mxGeometry>
        </mxCell>
        <mxCell id="sF0Dp-q9WW-C34XVPIgy-84" value="" style="group" vertex="1" connectable="0" parent="sF0Dp-q9WW-C34XVPIgy-78">
          <mxGeometry x="89.999" width="77.142" height="77.14285714285715" as="geometry" />
        </mxCell>
        <mxCell id="sF0Dp-q9WW-C34XVPIgy-85" value="" style="endArrow=none;html=1;rounded=0;" edge="1" parent="sF0Dp-q9WW-C34XVPIgy-84">
          <mxGeometry width="50" height="50" relative="1" as="geometry">
            <mxPoint x="25.714" y="77.14285714285715" as="sourcePoint" />
            <mxPoint x="25.714" as="targetPoint" />
          </mxGeometry>
        </mxCell>
        <mxCell id="sF0Dp-q9WW-C34XVPIgy-86" value="" style="endArrow=none;html=1;rounded=0;" edge="1" parent="sF0Dp-q9WW-C34XVPIgy-84">
          <mxGeometry width="50" height="50" relative="1" as="geometry">
            <mxPoint x="51.428" y="77.14285714285715" as="sourcePoint" />
            <mxPoint x="51.428" as="targetPoint" />
          </mxGeometry>
        </mxCell>
        <mxCell id="sF0Dp-q9WW-C34XVPIgy-87" value="" style="endArrow=none;html=1;rounded=0;" edge="1" parent="sF0Dp-q9WW-C34XVPIgy-84">
          <mxGeometry width="50" height="50" relative="1" as="geometry">
            <mxPoint x="77.142" y="25.714285714285715" as="sourcePoint" />
            <mxPoint y="25.714285714285715" as="targetPoint" />
          </mxGeometry>
        </mxCell>
        <mxCell id="sF0Dp-q9WW-C34XVPIgy-88" value="" style="endArrow=none;html=1;rounded=0;" edge="1" parent="sF0Dp-q9WW-C34XVPIgy-84">
          <mxGeometry width="50" height="50" relative="1" as="geometry">
            <mxPoint x="77.142" y="51.42857142857143" as="sourcePoint" />
            <mxPoint y="51.42857142857143" as="targetPoint" />
          </mxGeometry>
        </mxCell>
        <mxCell id="sF0Dp-q9WW-C34XVPIgy-89" value="" style="group" vertex="1" connectable="0" parent="sF0Dp-q9WW-C34XVPIgy-78">
          <mxGeometry x="179.998" width="77.142" height="77.14285714285715" as="geometry" />
        </mxCell>
        <mxCell id="sF0Dp-q9WW-C34XVPIgy-90" value="" style="endArrow=none;html=1;rounded=0;" edge="1" parent="sF0Dp-q9WW-C34XVPIgy-89">
          <mxGeometry width="50" height="50" relative="1" as="geometry">
            <mxPoint x="25.714" y="77.14285714285715" as="sourcePoint" />
            <mxPoint x="25.714" as="targetPoint" />
          </mxGeometry>
        </mxCell>
        <mxCell id="sF0Dp-q9WW-C34XVPIgy-91" value="" style="endArrow=none;html=1;rounded=0;" edge="1" parent="sF0Dp-q9WW-C34XVPIgy-89">
          <mxGeometry width="50" height="50" relative="1" as="geometry">
            <mxPoint x="51.428" y="77.14285714285715" as="sourcePoint" />
            <mxPoint x="51.428" as="targetPoint" />
          </mxGeometry>
        </mxCell>
        <mxCell id="sF0Dp-q9WW-C34XVPIgy-92" value="" style="endArrow=none;html=1;rounded=0;" edge="1" parent="sF0Dp-q9WW-C34XVPIgy-89">
          <mxGeometry width="50" height="50" relative="1" as="geometry">
            <mxPoint x="77.142" y="25.714285714285715" as="sourcePoint" />
            <mxPoint y="25.714285714285715" as="targetPoint" />
          </mxGeometry>
        </mxCell>
        <mxCell id="sF0Dp-q9WW-C34XVPIgy-93" value="" style="endArrow=none;html=1;rounded=0;" edge="1" parent="sF0Dp-q9WW-C34XVPIgy-89">
          <mxGeometry width="50" height="50" relative="1" as="geometry">
            <mxPoint x="77.142" y="51.42857142857143" as="sourcePoint" />
            <mxPoint y="51.42857142857143" as="targetPoint" />
          </mxGeometry>
        </mxCell>
        <mxCell id="sF0Dp-q9WW-C34XVPIgy-94" value="" style="group" vertex="1" connectable="0" parent="sF0Dp-q9WW-C34XVPIgy-60">
          <mxGeometry width="257.14" height="77.14285714285715" as="geometry" />
        </mxCell>
        <mxCell id="sF0Dp-q9WW-C34XVPIgy-95" value="" style="group" vertex="1" connectable="0" parent="sF0Dp-q9WW-C34XVPIgy-94">
          <mxGeometry width="77.142" height="77.14285714285715" as="geometry" />
        </mxCell>
        <mxCell id="sF0Dp-q9WW-C34XVPIgy-96" value="" style="endArrow=none;html=1;rounded=0;" edge="1" parent="sF0Dp-q9WW-C34XVPIgy-95">
          <mxGeometry width="50" height="50" relative="1" as="geometry">
            <mxPoint x="25.714" y="77.14285714285715" as="sourcePoint" />
            <mxPoint x="25.714" as="targetPoint" />
          </mxGeometry>
        </mxCell>
        <mxCell id="sF0Dp-q9WW-C34XVPIgy-97" value="" style="endArrow=none;html=1;rounded=0;" edge="1" parent="sF0Dp-q9WW-C34XVPIgy-95">
          <mxGeometry width="50" height="50" relative="1" as="geometry">
            <mxPoint x="51.428" y="77.14285714285715" as="sourcePoint" />
            <mxPoint x="51.428" as="targetPoint" />
          </mxGeometry>
        </mxCell>
        <mxCell id="sF0Dp-q9WW-C34XVPIgy-98" value="" style="endArrow=none;html=1;rounded=0;" edge="1" parent="sF0Dp-q9WW-C34XVPIgy-95">
          <mxGeometry width="50" height="50" relative="1" as="geometry">
            <mxPoint x="77.142" y="25.714285714285715" as="sourcePoint" />
            <mxPoint y="25.714285714285715" as="targetPoint" />
          </mxGeometry>
        </mxCell>
        <mxCell id="sF0Dp-q9WW-C34XVPIgy-99" value="" style="endArrow=none;html=1;rounded=0;" edge="1" parent="sF0Dp-q9WW-C34XVPIgy-95">
          <mxGeometry width="50" height="50" relative="1" as="geometry">
            <mxPoint x="77.142" y="51.42857142857143" as="sourcePoint" />
            <mxPoint y="51.42857142857143" as="targetPoint" />
          </mxGeometry>
        </mxCell>
        <mxCell id="sF0Dp-q9WW-C34XVPIgy-100" value="" style="group" vertex="1" connectable="0" parent="sF0Dp-q9WW-C34XVPIgy-94">
          <mxGeometry x="89.999" width="77.142" height="77.14285714285715" as="geometry" />
        </mxCell>
        <mxCell id="sF0Dp-q9WW-C34XVPIgy-101" value="" style="endArrow=none;html=1;rounded=0;" edge="1" parent="sF0Dp-q9WW-C34XVPIgy-100">
          <mxGeometry width="50" height="50" relative="1" as="geometry">
            <mxPoint x="25.714" y="77.14285714285715" as="sourcePoint" />
            <mxPoint x="25.714" as="targetPoint" />
          </mxGeometry>
        </mxCell>
        <mxCell id="sF0Dp-q9WW-C34XVPIgy-102" value="" style="endArrow=none;html=1;rounded=0;" edge="1" parent="sF0Dp-q9WW-C34XVPIgy-100">
          <mxGeometry width="50" height="50" relative="1" as="geometry">
            <mxPoint x="51.428" y="77.14285714285715" as="sourcePoint" />
            <mxPoint x="51.428" as="targetPoint" />
          </mxGeometry>
        </mxCell>
        <mxCell id="sF0Dp-q9WW-C34XVPIgy-103" value="" style="endArrow=none;html=1;rounded=0;" edge="1" parent="sF0Dp-q9WW-C34XVPIgy-100">
          <mxGeometry width="50" height="50" relative="1" as="geometry">
            <mxPoint x="77.142" y="25.714285714285715" as="sourcePoint" />
            <mxPoint y="25.714285714285715" as="targetPoint" />
          </mxGeometry>
        </mxCell>
        <mxCell id="sF0Dp-q9WW-C34XVPIgy-104" value="" style="endArrow=none;html=1;rounded=0;" edge="1" parent="sF0Dp-q9WW-C34XVPIgy-100">
          <mxGeometry width="50" height="50" relative="1" as="geometry">
            <mxPoint x="77.142" y="51.42857142857143" as="sourcePoint" />
            <mxPoint y="51.42857142857143" as="targetPoint" />
          </mxGeometry>
        </mxCell>
        <mxCell id="sF0Dp-q9WW-C34XVPIgy-105" value="" style="group" vertex="1" connectable="0" parent="sF0Dp-q9WW-C34XVPIgy-94">
          <mxGeometry x="179.998" width="77.142" height="77.14285714285715" as="geometry" />
        </mxCell>
        <mxCell id="sF0Dp-q9WW-C34XVPIgy-106" value="" style="endArrow=none;html=1;rounded=0;" edge="1" parent="sF0Dp-q9WW-C34XVPIgy-105">
          <mxGeometry width="50" height="50" relative="1" as="geometry">
            <mxPoint x="25.714" y="77.14285714285715" as="sourcePoint" />
            <mxPoint x="25.714" as="targetPoint" />
          </mxGeometry>
        </mxCell>
        <mxCell id="sF0Dp-q9WW-C34XVPIgy-107" value="" style="endArrow=none;html=1;rounded=0;" edge="1" parent="sF0Dp-q9WW-C34XVPIgy-105">
          <mxGeometry width="50" height="50" relative="1" as="geometry">
            <mxPoint x="51.428" y="77.14285714285715" as="sourcePoint" />
            <mxPoint x="51.428" as="targetPoint" />
          </mxGeometry>
        </mxCell>
        <mxCell id="sF0Dp-q9WW-C34XVPIgy-108" value="" style="endArrow=none;html=1;rounded=0;" edge="1" parent="sF0Dp-q9WW-C34XVPIgy-105">
          <mxGeometry width="50" height="50" relative="1" as="geometry">
            <mxPoint x="77.142" y="25.714285714285715" as="sourcePoint" />
            <mxPoint y="25.714285714285715" as="targetPoint" />
          </mxGeometry>
        </mxCell>
        <mxCell id="sF0Dp-q9WW-C34XVPIgy-109" value="" style="endArrow=none;html=1;rounded=0;" edge="1" parent="sF0Dp-q9WW-C34XVPIgy-105">
          <mxGeometry width="50" height="50" relative="1" as="geometry">
            <mxPoint x="77.142" y="51.42857142857143" as="sourcePoint" />
            <mxPoint y="51.42857142857143" as="targetPoint" />
          </mxGeometry>
        </mxCell>
        <mxCell id="sF0Dp-q9WW-C34XVPIgy-110" value="" style="endArrow=none;html=1;rounded=0;" edge="1" parent="sF0Dp-q9WW-C34XVPIgy-60">
          <mxGeometry width="50" height="50" relative="1" as="geometry">
            <mxPoint x="83.5705" y="270" as="sourcePoint" />
            <mxPoint x="83.5705" as="targetPoint" />
          </mxGeometry>
        </mxCell>
        <mxCell id="sF0Dp-q9WW-C34XVPIgy-111" value="" style="endArrow=none;html=1;rounded=0;" edge="1" parent="sF0Dp-q9WW-C34XVPIgy-60">
          <mxGeometry width="50" height="50" relative="1" as="geometry">
            <mxPoint y="83.57142857142858" as="sourcePoint" />
            <mxPoint x="257.14" y="83.57142857142858" as="targetPoint" />
          </mxGeometry>
        </mxCell>
        <mxCell id="sF0Dp-q9WW-C34XVPIgy-112" value="" style="endArrow=none;html=1;rounded=0;" edge="1" parent="sF0Dp-q9WW-C34XVPIgy-60">
          <mxGeometry width="50" height="50" relative="1" as="geometry">
            <mxPoint y="173.57142857142858" as="sourcePoint" />
            <mxPoint x="257.14" y="173.57142857142858" as="targetPoint" />
          </mxGeometry>
        </mxCell>
        <mxCell id="sF0Dp-q9WW-C34XVPIgy-113" value="" style="group" vertex="1" connectable="0" parent="1">
          <mxGeometry y="280" width="257.14" height="270" as="geometry" />
        </mxCell>
        <mxCell id="sF0Dp-q9WW-C34XVPIgy-114" value="" style="group" vertex="1" connectable="0" parent="sF0Dp-q9WW-C34XVPIgy-113">
          <mxGeometry y="180" width="257.14" height="77.14285714285715" as="geometry" />
        </mxCell>
        <mxCell id="sF0Dp-q9WW-C34XVPIgy-115" value="" style="group" vertex="1" connectable="0" parent="sF0Dp-q9WW-C34XVPIgy-114">
          <mxGeometry width="77.142" height="77.14285714285715" as="geometry" />
        </mxCell>
        <mxCell id="sF0Dp-q9WW-C34XVPIgy-116" value="" style="endArrow=none;html=1;rounded=0;" edge="1" parent="sF0Dp-q9WW-C34XVPIgy-115">
          <mxGeometry width="50" height="50" relative="1" as="geometry">
            <mxPoint x="25.714" y="77.14285714285715" as="sourcePoint" />
            <mxPoint x="25.714" as="targetPoint" />
          </mxGeometry>
        </mxCell>
        <mxCell id="sF0Dp-q9WW-C34XVPIgy-117" value="" style="endArrow=none;html=1;rounded=0;" edge="1" parent="sF0Dp-q9WW-C34XVPIgy-115">
          <mxGeometry width="50" height="50" relative="1" as="geometry">
            <mxPoint x="51.428" y="77.14285714285715" as="sourcePoint" />
            <mxPoint x="51.428" as="targetPoint" />
          </mxGeometry>
        </mxCell>
        <mxCell id="sF0Dp-q9WW-C34XVPIgy-118" value="" style="endArrow=none;html=1;rounded=0;" edge="1" parent="sF0Dp-q9WW-C34XVPIgy-115">
          <mxGeometry width="50" height="50" relative="1" as="geometry">
            <mxPoint x="77.142" y="25.714285714285715" as="sourcePoint" />
            <mxPoint y="25.714285714285715" as="targetPoint" />
          </mxGeometry>
        </mxCell>
        <mxCell id="sF0Dp-q9WW-C34XVPIgy-119" value="" style="endArrow=none;html=1;rounded=0;" edge="1" parent="sF0Dp-q9WW-C34XVPIgy-115">
          <mxGeometry width="50" height="50" relative="1" as="geometry">
            <mxPoint x="77.142" y="51.42857142857143" as="sourcePoint" />
            <mxPoint y="51.42857142857143" as="targetPoint" />
          </mxGeometry>
        </mxCell>
        <mxCell id="sF0Dp-q9WW-C34XVPIgy-120" value="" style="group" vertex="1" connectable="0" parent="sF0Dp-q9WW-C34XVPIgy-114">
          <mxGeometry x="89.999" width="77.142" height="77.14285714285715" as="geometry" />
        </mxCell>
        <mxCell id="sF0Dp-q9WW-C34XVPIgy-121" value="" style="endArrow=none;html=1;rounded=0;" edge="1" parent="sF0Dp-q9WW-C34XVPIgy-120">
          <mxGeometry width="50" height="50" relative="1" as="geometry">
            <mxPoint x="25.714" y="77.14285714285715" as="sourcePoint" />
            <mxPoint x="25.714" as="targetPoint" />
          </mxGeometry>
        </mxCell>
        <mxCell id="sF0Dp-q9WW-C34XVPIgy-122" value="" style="endArrow=none;html=1;rounded=0;" edge="1" parent="sF0Dp-q9WW-C34XVPIgy-120">
          <mxGeometry width="50" height="50" relative="1" as="geometry">
            <mxPoint x="51.428" y="77.14285714285715" as="sourcePoint" />
            <mxPoint x="51.428" as="targetPoint" />
          </mxGeometry>
        </mxCell>
        <mxCell id="sF0Dp-q9WW-C34XVPIgy-123" value="" style="endArrow=none;html=1;rounded=0;" edge="1" parent="sF0Dp-q9WW-C34XVPIgy-120">
          <mxGeometry width="50" height="50" relative="1" as="geometry">
            <mxPoint x="77.142" y="25.714285714285715" as="sourcePoint" />
            <mxPoint y="25.714285714285715" as="targetPoint" />
          </mxGeometry>
        </mxCell>
        <mxCell id="sF0Dp-q9WW-C34XVPIgy-124" value="" style="endArrow=none;html=1;rounded=0;" edge="1" parent="sF0Dp-q9WW-C34XVPIgy-120">
          <mxGeometry width="50" height="50" relative="1" as="geometry">
            <mxPoint x="77.142" y="51.42857142857143" as="sourcePoint" />
            <mxPoint y="51.42857142857143" as="targetPoint" />
          </mxGeometry>
        </mxCell>
        <mxCell id="sF0Dp-q9WW-C34XVPIgy-125" value="" style="group" vertex="1" connectable="0" parent="sF0Dp-q9WW-C34XVPIgy-114">
          <mxGeometry x="179.998" width="77.142" height="77.14285714285715" as="geometry" />
        </mxCell>
        <mxCell id="sF0Dp-q9WW-C34XVPIgy-126" value="" style="endArrow=none;html=1;rounded=0;" edge="1" parent="sF0Dp-q9WW-C34XVPIgy-125">
          <mxGeometry width="50" height="50" relative="1" as="geometry">
            <mxPoint x="25.714" y="77.14285714285715" as="sourcePoint" />
            <mxPoint x="25.714" as="targetPoint" />
          </mxGeometry>
        </mxCell>
        <mxCell id="sF0Dp-q9WW-C34XVPIgy-127" value="" style="endArrow=none;html=1;rounded=0;" edge="1" parent="sF0Dp-q9WW-C34XVPIgy-125">
          <mxGeometry width="50" height="50" relative="1" as="geometry">
            <mxPoint x="51.428" y="77.14285714285715" as="sourcePoint" />
            <mxPoint x="51.428" as="targetPoint" />
          </mxGeometry>
        </mxCell>
        <mxCell id="sF0Dp-q9WW-C34XVPIgy-128" value="" style="endArrow=none;html=1;rounded=0;" edge="1" parent="sF0Dp-q9WW-C34XVPIgy-125">
          <mxGeometry width="50" height="50" relative="1" as="geometry">
            <mxPoint x="77.142" y="25.714285714285715" as="sourcePoint" />
            <mxPoint y="25.714285714285715" as="targetPoint" />
          </mxGeometry>
        </mxCell>
        <mxCell id="sF0Dp-q9WW-C34XVPIgy-129" value="" style="endArrow=none;html=1;rounded=0;" edge="1" parent="sF0Dp-q9WW-C34XVPIgy-125">
          <mxGeometry width="50" height="50" relative="1" as="geometry">
            <mxPoint x="77.142" y="51.42857142857143" as="sourcePoint" />
            <mxPoint y="51.42857142857143" as="targetPoint" />
          </mxGeometry>
        </mxCell>
        <mxCell id="sF0Dp-q9WW-C34XVPIgy-130" value="" style="endArrow=none;html=1;rounded=0;" edge="1" parent="sF0Dp-q9WW-C34XVPIgy-114">
          <mxGeometry width="50" height="50" relative="1" as="geometry">
            <mxPoint x="173.56949999999998" y="90" as="sourcePoint" />
            <mxPoint x="173.56949999999998" y="-180" as="targetPoint" />
          </mxGeometry>
        </mxCell>
        <mxCell id="sF0Dp-q9WW-C34XVPIgy-131" value="" style="group" vertex="1" connectable="0" parent="sF0Dp-q9WW-C34XVPIgy-113">
          <mxGeometry y="90" width="257.14" height="77.14285714285715" as="geometry" />
        </mxCell>
        <mxCell id="sF0Dp-q9WW-C34XVPIgy-132" value="" style="group" vertex="1" connectable="0" parent="sF0Dp-q9WW-C34XVPIgy-131">
          <mxGeometry width="77.142" height="77.14285714285715" as="geometry" />
        </mxCell>
        <mxCell id="sF0Dp-q9WW-C34XVPIgy-133" value="" style="endArrow=none;html=1;rounded=0;" edge="1" parent="sF0Dp-q9WW-C34XVPIgy-132">
          <mxGeometry width="50" height="50" relative="1" as="geometry">
            <mxPoint x="25.714" y="77.14285714285715" as="sourcePoint" />
            <mxPoint x="25.714" as="targetPoint" />
          </mxGeometry>
        </mxCell>
        <mxCell id="sF0Dp-q9WW-C34XVPIgy-134" value="" style="endArrow=none;html=1;rounded=0;" edge="1" parent="sF0Dp-q9WW-C34XVPIgy-132">
          <mxGeometry width="50" height="50" relative="1" as="geometry">
            <mxPoint x="51.428" y="77.14285714285715" as="sourcePoint" />
            <mxPoint x="51.428" as="targetPoint" />
          </mxGeometry>
        </mxCell>
        <mxCell id="sF0Dp-q9WW-C34XVPIgy-135" value="" style="endArrow=none;html=1;rounded=0;" edge="1" parent="sF0Dp-q9WW-C34XVPIgy-132">
          <mxGeometry width="50" height="50" relative="1" as="geometry">
            <mxPoint x="77.142" y="25.714285714285715" as="sourcePoint" />
            <mxPoint y="25.714285714285715" as="targetPoint" />
          </mxGeometry>
        </mxCell>
        <mxCell id="sF0Dp-q9WW-C34XVPIgy-136" value="" style="endArrow=none;html=1;rounded=0;" edge="1" parent="sF0Dp-q9WW-C34XVPIgy-132">
          <mxGeometry width="50" height="50" relative="1" as="geometry">
            <mxPoint x="77.142" y="51.42857142857143" as="sourcePoint" />
            <mxPoint y="51.42857142857143" as="targetPoint" />
          </mxGeometry>
        </mxCell>
        <mxCell id="sF0Dp-q9WW-C34XVPIgy-137" value="" style="group" vertex="1" connectable="0" parent="sF0Dp-q9WW-C34XVPIgy-131">
          <mxGeometry x="89.999" width="77.142" height="77.14285714285715" as="geometry" />
        </mxCell>
        <mxCell id="sF0Dp-q9WW-C34XVPIgy-138" value="" style="endArrow=none;html=1;rounded=0;" edge="1" parent="sF0Dp-q9WW-C34XVPIgy-137">
          <mxGeometry width="50" height="50" relative="1" as="geometry">
            <mxPoint x="25.714" y="77.14285714285715" as="sourcePoint" />
            <mxPoint x="25.714" as="targetPoint" />
          </mxGeometry>
        </mxCell>
        <mxCell id="sF0Dp-q9WW-C34XVPIgy-139" value="" style="endArrow=none;html=1;rounded=0;" edge="1" parent="sF0Dp-q9WW-C34XVPIgy-137">
          <mxGeometry width="50" height="50" relative="1" as="geometry">
            <mxPoint x="51.428" y="77.14285714285715" as="sourcePoint" />
            <mxPoint x="51.428" as="targetPoint" />
          </mxGeometry>
        </mxCell>
        <mxCell id="sF0Dp-q9WW-C34XVPIgy-140" value="" style="endArrow=none;html=1;rounded=0;" edge="1" parent="sF0Dp-q9WW-C34XVPIgy-137">
          <mxGeometry width="50" height="50" relative="1" as="geometry">
            <mxPoint x="77.142" y="25.714285714285715" as="sourcePoint" />
            <mxPoint y="25.714285714285715" as="targetPoint" />
          </mxGeometry>
        </mxCell>
        <mxCell id="sF0Dp-q9WW-C34XVPIgy-141" value="" style="endArrow=none;html=1;rounded=0;" edge="1" parent="sF0Dp-q9WW-C34XVPIgy-137">
          <mxGeometry width="50" height="50" relative="1" as="geometry">
            <mxPoint x="77.142" y="51.42857142857143" as="sourcePoint" />
            <mxPoint y="51.42857142857143" as="targetPoint" />
          </mxGeometry>
        </mxCell>
        <mxCell id="sF0Dp-q9WW-C34XVPIgy-142" value="" style="group" vertex="1" connectable="0" parent="sF0Dp-q9WW-C34XVPIgy-131">
          <mxGeometry x="179.998" width="77.142" height="77.14285714285715" as="geometry" />
        </mxCell>
        <mxCell id="sF0Dp-q9WW-C34XVPIgy-143" value="" style="endArrow=none;html=1;rounded=0;" edge="1" parent="sF0Dp-q9WW-C34XVPIgy-142">
          <mxGeometry width="50" height="50" relative="1" as="geometry">
            <mxPoint x="25.714" y="77.14285714285715" as="sourcePoint" />
            <mxPoint x="25.714" as="targetPoint" />
          </mxGeometry>
        </mxCell>
        <mxCell id="sF0Dp-q9WW-C34XVPIgy-144" value="" style="endArrow=none;html=1;rounded=0;" edge="1" parent="sF0Dp-q9WW-C34XVPIgy-142">
          <mxGeometry width="50" height="50" relative="1" as="geometry">
            <mxPoint x="51.428" y="77.14285714285715" as="sourcePoint" />
            <mxPoint x="51.428" as="targetPoint" />
          </mxGeometry>
        </mxCell>
        <mxCell id="sF0Dp-q9WW-C34XVPIgy-145" value="" style="endArrow=none;html=1;rounded=0;" edge="1" parent="sF0Dp-q9WW-C34XVPIgy-142">
          <mxGeometry width="50" height="50" relative="1" as="geometry">
            <mxPoint x="77.142" y="25.714285714285715" as="sourcePoint" />
            <mxPoint y="25.714285714285715" as="targetPoint" />
          </mxGeometry>
        </mxCell>
        <mxCell id="sF0Dp-q9WW-C34XVPIgy-146" value="" style="endArrow=none;html=1;rounded=0;" edge="1" parent="sF0Dp-q9WW-C34XVPIgy-142">
          <mxGeometry width="50" height="50" relative="1" as="geometry">
            <mxPoint x="77.142" y="51.42857142857143" as="sourcePoint" />
            <mxPoint y="51.42857142857143" as="targetPoint" />
          </mxGeometry>
        </mxCell>
        <mxCell id="sF0Dp-q9WW-C34XVPIgy-147" value="" style="group" vertex="1" connectable="0" parent="sF0Dp-q9WW-C34XVPIgy-113">
          <mxGeometry width="257.14" height="77.14285714285715" as="geometry" />
        </mxCell>
        <mxCell id="sF0Dp-q9WW-C34XVPIgy-148" value="" style="group" vertex="1" connectable="0" parent="sF0Dp-q9WW-C34XVPIgy-147">
          <mxGeometry width="77.142" height="77.14285714285715" as="geometry" />
        </mxCell>
        <mxCell id="sF0Dp-q9WW-C34XVPIgy-149" value="" style="endArrow=none;html=1;rounded=0;" edge="1" parent="sF0Dp-q9WW-C34XVPIgy-148">
          <mxGeometry width="50" height="50" relative="1" as="geometry">
            <mxPoint x="25.714" y="77.14285714285715" as="sourcePoint" />
            <mxPoint x="25.714" as="targetPoint" />
          </mxGeometry>
        </mxCell>
        <mxCell id="sF0Dp-q9WW-C34XVPIgy-150" value="" style="endArrow=none;html=1;rounded=0;" edge="1" parent="sF0Dp-q9WW-C34XVPIgy-148">
          <mxGeometry width="50" height="50" relative="1" as="geometry">
            <mxPoint x="51.428" y="77.14285714285715" as="sourcePoint" />
            <mxPoint x="51.428" as="targetPoint" />
          </mxGeometry>
        </mxCell>
        <mxCell id="sF0Dp-q9WW-C34XVPIgy-151" value="" style="endArrow=none;html=1;rounded=0;" edge="1" parent="sF0Dp-q9WW-C34XVPIgy-148">
          <mxGeometry width="50" height="50" relative="1" as="geometry">
            <mxPoint x="77.142" y="25.714285714285715" as="sourcePoint" />
            <mxPoint y="25.714285714285715" as="targetPoint" />
          </mxGeometry>
        </mxCell>
        <mxCell id="sF0Dp-q9WW-C34XVPIgy-152" value="" style="endArrow=none;html=1;rounded=0;" edge="1" parent="sF0Dp-q9WW-C34XVPIgy-148">
          <mxGeometry width="50" height="50" relative="1" as="geometry">
            <mxPoint x="77.142" y="51.42857142857143" as="sourcePoint" />
            <mxPoint y="51.42857142857143" as="targetPoint" />
          </mxGeometry>
        </mxCell>
        <mxCell id="sF0Dp-q9WW-C34XVPIgy-153" value="" style="group" vertex="1" connectable="0" parent="sF0Dp-q9WW-C34XVPIgy-147">
          <mxGeometry x="89.999" width="77.142" height="77.14285714285715" as="geometry" />
        </mxCell>
        <mxCell id="sF0Dp-q9WW-C34XVPIgy-154" value="" style="endArrow=none;html=1;rounded=0;" edge="1" parent="sF0Dp-q9WW-C34XVPIgy-153">
          <mxGeometry width="50" height="50" relative="1" as="geometry">
            <mxPoint x="25.714" y="77.14285714285715" as="sourcePoint" />
            <mxPoint x="25.714" as="targetPoint" />
          </mxGeometry>
        </mxCell>
        <mxCell id="sF0Dp-q9WW-C34XVPIgy-155" value="" style="endArrow=none;html=1;rounded=0;" edge="1" parent="sF0Dp-q9WW-C34XVPIgy-153">
          <mxGeometry width="50" height="50" relative="1" as="geometry">
            <mxPoint x="51.428" y="77.14285714285715" as="sourcePoint" />
            <mxPoint x="51.428" as="targetPoint" />
          </mxGeometry>
        </mxCell>
        <mxCell id="sF0Dp-q9WW-C34XVPIgy-156" value="" style="endArrow=none;html=1;rounded=0;" edge="1" parent="sF0Dp-q9WW-C34XVPIgy-153">
          <mxGeometry width="50" height="50" relative="1" as="geometry">
            <mxPoint x="77.142" y="25.714285714285715" as="sourcePoint" />
            <mxPoint y="25.714285714285715" as="targetPoint" />
          </mxGeometry>
        </mxCell>
        <mxCell id="sF0Dp-q9WW-C34XVPIgy-157" value="" style="endArrow=none;html=1;rounded=0;" edge="1" parent="sF0Dp-q9WW-C34XVPIgy-153">
          <mxGeometry width="50" height="50" relative="1" as="geometry">
            <mxPoint x="77.142" y="51.42857142857143" as="sourcePoint" />
            <mxPoint y="51.42857142857143" as="targetPoint" />
          </mxGeometry>
        </mxCell>
        <mxCell id="sF0Dp-q9WW-C34XVPIgy-158" value="" style="group" vertex="1" connectable="0" parent="sF0Dp-q9WW-C34XVPIgy-147">
          <mxGeometry x="179.998" width="77.142" height="77.14285714285715" as="geometry" />
        </mxCell>
        <mxCell id="sF0Dp-q9WW-C34XVPIgy-159" value="" style="endArrow=none;html=1;rounded=0;" edge="1" parent="sF0Dp-q9WW-C34XVPIgy-158">
          <mxGeometry width="50" height="50" relative="1" as="geometry">
            <mxPoint x="25.714" y="77.14285714285715" as="sourcePoint" />
            <mxPoint x="25.714" as="targetPoint" />
          </mxGeometry>
        </mxCell>
        <mxCell id="sF0Dp-q9WW-C34XVPIgy-160" value="" style="endArrow=none;html=1;rounded=0;" edge="1" parent="sF0Dp-q9WW-C34XVPIgy-158">
          <mxGeometry width="50" height="50" relative="1" as="geometry">
            <mxPoint x="51.428" y="77.14285714285715" as="sourcePoint" />
            <mxPoint x="51.428" as="targetPoint" />
          </mxGeometry>
        </mxCell>
        <mxCell id="sF0Dp-q9WW-C34XVPIgy-161" value="" style="endArrow=none;html=1;rounded=0;" edge="1" parent="sF0Dp-q9WW-C34XVPIgy-158">
          <mxGeometry width="50" height="50" relative="1" as="geometry">
            <mxPoint x="77.142" y="25.714285714285715" as="sourcePoint" />
            <mxPoint y="25.714285714285715" as="targetPoint" />
          </mxGeometry>
        </mxCell>
        <mxCell id="sF0Dp-q9WW-C34XVPIgy-162" value="" style="endArrow=none;html=1;rounded=0;" edge="1" parent="sF0Dp-q9WW-C34XVPIgy-158">
          <mxGeometry width="50" height="50" relative="1" as="geometry">
            <mxPoint x="77.142" y="51.42857142857143" as="sourcePoint" />
            <mxPoint y="51.42857142857143" as="targetPoint" />
          </mxGeometry>
        </mxCell>
        <mxCell id="sF0Dp-q9WW-C34XVPIgy-163" value="" style="endArrow=none;html=1;rounded=0;" edge="1" parent="sF0Dp-q9WW-C34XVPIgy-113">
          <mxGeometry width="50" height="50" relative="1" as="geometry">
            <mxPoint x="83.5705" y="270" as="sourcePoint" />
            <mxPoint x="83.5705" as="targetPoint" />
          </mxGeometry>
        </mxCell>
        <mxCell id="sF0Dp-q9WW-C34XVPIgy-164" value="" style="endArrow=none;html=1;rounded=0;" edge="1" parent="sF0Dp-q9WW-C34XVPIgy-113">
          <mxGeometry width="50" height="50" relative="1" as="geometry">
            <mxPoint y="83.57142857142858" as="sourcePoint" />
            <mxPoint x="257.14" y="83.57142857142858" as="targetPoint" />
          </mxGeometry>
        </mxCell>
        <mxCell id="sF0Dp-q9WW-C34XVPIgy-165" value="" style="endArrow=none;html=1;rounded=0;" edge="1" parent="sF0Dp-q9WW-C34XVPIgy-113">
          <mxGeometry width="50" height="50" relative="1" as="geometry">
            <mxPoint y="173.57142857142858" as="sourcePoint" />
            <mxPoint x="257.14" y="173.57142857142858" as="targetPoint" />
          </mxGeometry>
        </mxCell>
        <mxCell id="sF0Dp-q9WW-C34XVPIgy-166" value="" style="group" vertex="1" connectable="0" parent="1">
          <mxGeometry x="285" y="280" width="257.14" height="270" as="geometry" />
        </mxCell>
        <mxCell id="sF0Dp-q9WW-C34XVPIgy-167" value="" style="group" vertex="1" connectable="0" parent="sF0Dp-q9WW-C34XVPIgy-166">
          <mxGeometry y="180" width="257.14" height="77.14285714285715" as="geometry" />
        </mxCell>
        <mxCell id="sF0Dp-q9WW-C34XVPIgy-168" value="" style="group" vertex="1" connectable="0" parent="sF0Dp-q9WW-C34XVPIgy-167">
          <mxGeometry width="77.142" height="77.14285714285715" as="geometry" />
        </mxCell>
        <mxCell id="sF0Dp-q9WW-C34XVPIgy-169" value="" style="endArrow=none;html=1;rounded=0;" edge="1" parent="sF0Dp-q9WW-C34XVPIgy-168">
          <mxGeometry width="50" height="50" relative="1" as="geometry">
            <mxPoint x="25.714" y="77.14285714285715" as="sourcePoint" />
            <mxPoint x="25.714" as="targetPoint" />
          </mxGeometry>
        </mxCell>
        <mxCell id="sF0Dp-q9WW-C34XVPIgy-170" value="" style="endArrow=none;html=1;rounded=0;" edge="1" parent="sF0Dp-q9WW-C34XVPIgy-168">
          <mxGeometry width="50" height="50" relative="1" as="geometry">
            <mxPoint x="51.428" y="77.14285714285715" as="sourcePoint" />
            <mxPoint x="51.428" as="targetPoint" />
          </mxGeometry>
        </mxCell>
        <mxCell id="sF0Dp-q9WW-C34XVPIgy-171" value="" style="endArrow=none;html=1;rounded=0;" edge="1" parent="sF0Dp-q9WW-C34XVPIgy-168">
          <mxGeometry width="50" height="50" relative="1" as="geometry">
            <mxPoint x="77.142" y="25.714285714285715" as="sourcePoint" />
            <mxPoint y="25.714285714285715" as="targetPoint" />
          </mxGeometry>
        </mxCell>
        <mxCell id="sF0Dp-q9WW-C34XVPIgy-172" value="" style="endArrow=none;html=1;rounded=0;" edge="1" parent="sF0Dp-q9WW-C34XVPIgy-168">
          <mxGeometry width="50" height="50" relative="1" as="geometry">
            <mxPoint x="77.142" y="51.42857142857143" as="sourcePoint" />
            <mxPoint y="51.42857142857143" as="targetPoint" />
          </mxGeometry>
        </mxCell>
        <mxCell id="sF0Dp-q9WW-C34XVPIgy-173" value="" style="group" vertex="1" connectable="0" parent="sF0Dp-q9WW-C34XVPIgy-167">
          <mxGeometry x="89.999" width="77.142" height="77.14285714285715" as="geometry" />
        </mxCell>
        <mxCell id="sF0Dp-q9WW-C34XVPIgy-174" value="" style="endArrow=none;html=1;rounded=0;" edge="1" parent="sF0Dp-q9WW-C34XVPIgy-173">
          <mxGeometry width="50" height="50" relative="1" as="geometry">
            <mxPoint x="25.714" y="77.14285714285715" as="sourcePoint" />
            <mxPoint x="25.714" as="targetPoint" />
          </mxGeometry>
        </mxCell>
        <mxCell id="sF0Dp-q9WW-C34XVPIgy-175" value="" style="endArrow=none;html=1;rounded=0;" edge="1" parent="sF0Dp-q9WW-C34XVPIgy-173">
          <mxGeometry width="50" height="50" relative="1" as="geometry">
            <mxPoint x="51.428" y="77.14285714285715" as="sourcePoint" />
            <mxPoint x="51.428" as="targetPoint" />
          </mxGeometry>
        </mxCell>
        <mxCell id="sF0Dp-q9WW-C34XVPIgy-176" value="" style="endArrow=none;html=1;rounded=0;" edge="1" parent="sF0Dp-q9WW-C34XVPIgy-173">
          <mxGeometry width="50" height="50" relative="1" as="geometry">
            <mxPoint x="77.142" y="25.714285714285715" as="sourcePoint" />
            <mxPoint y="25.714285714285715" as="targetPoint" />
          </mxGeometry>
        </mxCell>
        <mxCell id="sF0Dp-q9WW-C34XVPIgy-177" value="" style="endArrow=none;html=1;rounded=0;" edge="1" parent="sF0Dp-q9WW-C34XVPIgy-173">
          <mxGeometry width="50" height="50" relative="1" as="geometry">
            <mxPoint x="77.142" y="51.42857142857143" as="sourcePoint" />
            <mxPoint y="51.42857142857143" as="targetPoint" />
          </mxGeometry>
        </mxCell>
        <mxCell id="sF0Dp-q9WW-C34XVPIgy-178" value="" style="group" vertex="1" connectable="0" parent="sF0Dp-q9WW-C34XVPIgy-167">
          <mxGeometry x="179.998" width="77.142" height="77.14285714285715" as="geometry" />
        </mxCell>
        <mxCell id="sF0Dp-q9WW-C34XVPIgy-179" value="" style="endArrow=none;html=1;rounded=0;" edge="1" parent="sF0Dp-q9WW-C34XVPIgy-178">
          <mxGeometry width="50" height="50" relative="1" as="geometry">
            <mxPoint x="25.714" y="77.14285714285715" as="sourcePoint" />
            <mxPoint x="25.714" as="targetPoint" />
          </mxGeometry>
        </mxCell>
        <mxCell id="sF0Dp-q9WW-C34XVPIgy-180" value="" style="endArrow=none;html=1;rounded=0;" edge="1" parent="sF0Dp-q9WW-C34XVPIgy-178">
          <mxGeometry width="50" height="50" relative="1" as="geometry">
            <mxPoint x="51.428" y="77.14285714285715" as="sourcePoint" />
            <mxPoint x="51.428" as="targetPoint" />
          </mxGeometry>
        </mxCell>
        <mxCell id="sF0Dp-q9WW-C34XVPIgy-181" value="" style="endArrow=none;html=1;rounded=0;" edge="1" parent="sF0Dp-q9WW-C34XVPIgy-178">
          <mxGeometry width="50" height="50" relative="1" as="geometry">
            <mxPoint x="77.142" y="25.714285714285715" as="sourcePoint" />
            <mxPoint y="25.714285714285715" as="targetPoint" />
          </mxGeometry>
        </mxCell>
        <mxCell id="sF0Dp-q9WW-C34XVPIgy-182" value="" style="endArrow=none;html=1;rounded=0;" edge="1" parent="sF0Dp-q9WW-C34XVPIgy-178">
          <mxGeometry width="50" height="50" relative="1" as="geometry">
            <mxPoint x="77.142" y="51.42857142857143" as="sourcePoint" />
            <mxPoint y="51.42857142857143" as="targetPoint" />
          </mxGeometry>
        </mxCell>
        <mxCell id="sF0Dp-q9WW-C34XVPIgy-183" value="" style="endArrow=none;html=1;rounded=0;" edge="1" parent="sF0Dp-q9WW-C34XVPIgy-167">
          <mxGeometry width="50" height="50" relative="1" as="geometry">
            <mxPoint x="173.56949999999998" y="90" as="sourcePoint" />
            <mxPoint x="173.56949999999998" y="-180" as="targetPoint" />
          </mxGeometry>
        </mxCell>
        <mxCell id="sF0Dp-q9WW-C34XVPIgy-184" value="" style="group" vertex="1" connectable="0" parent="sF0Dp-q9WW-C34XVPIgy-166">
          <mxGeometry y="90" width="257.14" height="77.14285714285715" as="geometry" />
        </mxCell>
        <mxCell id="sF0Dp-q9WW-C34XVPIgy-185" value="" style="group" vertex="1" connectable="0" parent="sF0Dp-q9WW-C34XVPIgy-184">
          <mxGeometry width="77.142" height="77.14285714285715" as="geometry" />
        </mxCell>
        <mxCell id="sF0Dp-q9WW-C34XVPIgy-186" value="" style="endArrow=none;html=1;rounded=0;" edge="1" parent="sF0Dp-q9WW-C34XVPIgy-185">
          <mxGeometry width="50" height="50" relative="1" as="geometry">
            <mxPoint x="25.714" y="77.14285714285715" as="sourcePoint" />
            <mxPoint x="25.714" as="targetPoint" />
          </mxGeometry>
        </mxCell>
        <mxCell id="sF0Dp-q9WW-C34XVPIgy-187" value="" style="endArrow=none;html=1;rounded=0;" edge="1" parent="sF0Dp-q9WW-C34XVPIgy-185">
          <mxGeometry width="50" height="50" relative="1" as="geometry">
            <mxPoint x="51.428" y="77.14285714285715" as="sourcePoint" />
            <mxPoint x="51.428" as="targetPoint" />
          </mxGeometry>
        </mxCell>
        <mxCell id="sF0Dp-q9WW-C34XVPIgy-188" value="" style="endArrow=none;html=1;rounded=0;" edge="1" parent="sF0Dp-q9WW-C34XVPIgy-185">
          <mxGeometry width="50" height="50" relative="1" as="geometry">
            <mxPoint x="77.142" y="25.714285714285715" as="sourcePoint" />
            <mxPoint y="25.714285714285715" as="targetPoint" />
          </mxGeometry>
        </mxCell>
        <mxCell id="sF0Dp-q9WW-C34XVPIgy-189" value="" style="endArrow=none;html=1;rounded=0;" edge="1" parent="sF0Dp-q9WW-C34XVPIgy-185">
          <mxGeometry width="50" height="50" relative="1" as="geometry">
            <mxPoint x="77.142" y="51.42857142857143" as="sourcePoint" />
            <mxPoint y="51.42857142857143" as="targetPoint" />
          </mxGeometry>
        </mxCell>
        <mxCell id="sF0Dp-q9WW-C34XVPIgy-190" value="" style="group" vertex="1" connectable="0" parent="sF0Dp-q9WW-C34XVPIgy-184">
          <mxGeometry x="89.999" width="77.142" height="77.14285714285715" as="geometry" />
        </mxCell>
        <mxCell id="sF0Dp-q9WW-C34XVPIgy-191" value="" style="endArrow=none;html=1;rounded=0;" edge="1" parent="sF0Dp-q9WW-C34XVPIgy-190">
          <mxGeometry width="50" height="50" relative="1" as="geometry">
            <mxPoint x="25.714" y="77.14285714285715" as="sourcePoint" />
            <mxPoint x="25.714" as="targetPoint" />
          </mxGeometry>
        </mxCell>
        <mxCell id="sF0Dp-q9WW-C34XVPIgy-192" value="" style="endArrow=none;html=1;rounded=0;" edge="1" parent="sF0Dp-q9WW-C34XVPIgy-190">
          <mxGeometry width="50" height="50" relative="1" as="geometry">
            <mxPoint x="51.428" y="77.14285714285715" as="sourcePoint" />
            <mxPoint x="51.428" as="targetPoint" />
          </mxGeometry>
        </mxCell>
        <mxCell id="sF0Dp-q9WW-C34XVPIgy-193" value="" style="endArrow=none;html=1;rounded=0;" edge="1" parent="sF0Dp-q9WW-C34XVPIgy-190">
          <mxGeometry width="50" height="50" relative="1" as="geometry">
            <mxPoint x="77.142" y="25.714285714285715" as="sourcePoint" />
            <mxPoint y="25.714285714285715" as="targetPoint" />
          </mxGeometry>
        </mxCell>
        <mxCell id="sF0Dp-q9WW-C34XVPIgy-194" value="" style="endArrow=none;html=1;rounded=0;" edge="1" parent="sF0Dp-q9WW-C34XVPIgy-190">
          <mxGeometry width="50" height="50" relative="1" as="geometry">
            <mxPoint x="77.142" y="51.42857142857143" as="sourcePoint" />
            <mxPoint y="51.42857142857143" as="targetPoint" />
          </mxGeometry>
        </mxCell>
        <mxCell id="sF0Dp-q9WW-C34XVPIgy-195" value="" style="group" vertex="1" connectable="0" parent="sF0Dp-q9WW-C34XVPIgy-184">
          <mxGeometry x="179.998" width="77.142" height="77.14285714285715" as="geometry" />
        </mxCell>
        <mxCell id="sF0Dp-q9WW-C34XVPIgy-196" value="" style="endArrow=none;html=1;rounded=0;" edge="1" parent="sF0Dp-q9WW-C34XVPIgy-195">
          <mxGeometry width="50" height="50" relative="1" as="geometry">
            <mxPoint x="25.714" y="77.14285714285715" as="sourcePoint" />
            <mxPoint x="25.714" as="targetPoint" />
          </mxGeometry>
        </mxCell>
        <mxCell id="sF0Dp-q9WW-C34XVPIgy-197" value="" style="endArrow=none;html=1;rounded=0;" edge="1" parent="sF0Dp-q9WW-C34XVPIgy-195">
          <mxGeometry width="50" height="50" relative="1" as="geometry">
            <mxPoint x="51.428" y="77.14285714285715" as="sourcePoint" />
            <mxPoint x="51.428" as="targetPoint" />
          </mxGeometry>
        </mxCell>
        <mxCell id="sF0Dp-q9WW-C34XVPIgy-198" value="" style="endArrow=none;html=1;rounded=0;" edge="1" parent="sF0Dp-q9WW-C34XVPIgy-195">
          <mxGeometry width="50" height="50" relative="1" as="geometry">
            <mxPoint x="77.142" y="25.714285714285715" as="sourcePoint" />
            <mxPoint y="25.714285714285715" as="targetPoint" />
          </mxGeometry>
        </mxCell>
        <mxCell id="sF0Dp-q9WW-C34XVPIgy-199" value="" style="endArrow=none;html=1;rounded=0;" edge="1" parent="sF0Dp-q9WW-C34XVPIgy-195">
          <mxGeometry width="50" height="50" relative="1" as="geometry">
            <mxPoint x="77.142" y="51.42857142857143" as="sourcePoint" />
            <mxPoint y="51.42857142857143" as="targetPoint" />
          </mxGeometry>
        </mxCell>
        <mxCell id="sF0Dp-q9WW-C34XVPIgy-200" value="" style="group" vertex="1" connectable="0" parent="sF0Dp-q9WW-C34XVPIgy-166">
          <mxGeometry width="257.14" height="77.14285714285715" as="geometry" />
        </mxCell>
        <mxCell id="sF0Dp-q9WW-C34XVPIgy-201" value="" style="group" vertex="1" connectable="0" parent="sF0Dp-q9WW-C34XVPIgy-200">
          <mxGeometry width="77.142" height="77.14285714285715" as="geometry" />
        </mxCell>
        <mxCell id="sF0Dp-q9WW-C34XVPIgy-202" value="" style="endArrow=none;html=1;rounded=0;" edge="1" parent="sF0Dp-q9WW-C34XVPIgy-201">
          <mxGeometry width="50" height="50" relative="1" as="geometry">
            <mxPoint x="25.714" y="77.14285714285715" as="sourcePoint" />
            <mxPoint x="25.714" as="targetPoint" />
          </mxGeometry>
        </mxCell>
        <mxCell id="sF0Dp-q9WW-C34XVPIgy-203" value="" style="endArrow=none;html=1;rounded=0;" edge="1" parent="sF0Dp-q9WW-C34XVPIgy-201">
          <mxGeometry width="50" height="50" relative="1" as="geometry">
            <mxPoint x="51.428" y="77.14285714285715" as="sourcePoint" />
            <mxPoint x="51.428" as="targetPoint" />
          </mxGeometry>
        </mxCell>
        <mxCell id="sF0Dp-q9WW-C34XVPIgy-204" value="" style="endArrow=none;html=1;rounded=0;" edge="1" parent="sF0Dp-q9WW-C34XVPIgy-201">
          <mxGeometry width="50" height="50" relative="1" as="geometry">
            <mxPoint x="77.142" y="25.714285714285715" as="sourcePoint" />
            <mxPoint y="25.714285714285715" as="targetPoint" />
          </mxGeometry>
        </mxCell>
        <mxCell id="sF0Dp-q9WW-C34XVPIgy-205" value="" style="endArrow=none;html=1;rounded=0;" edge="1" parent="sF0Dp-q9WW-C34XVPIgy-201">
          <mxGeometry width="50" height="50" relative="1" as="geometry">
            <mxPoint x="77.142" y="51.42857142857143" as="sourcePoint" />
            <mxPoint y="51.42857142857143" as="targetPoint" />
          </mxGeometry>
        </mxCell>
        <mxCell id="sF0Dp-q9WW-C34XVPIgy-206" value="" style="group" vertex="1" connectable="0" parent="sF0Dp-q9WW-C34XVPIgy-200">
          <mxGeometry x="89.999" width="77.142" height="77.14285714285715" as="geometry" />
        </mxCell>
        <mxCell id="sF0Dp-q9WW-C34XVPIgy-207" value="" style="endArrow=none;html=1;rounded=0;" edge="1" parent="sF0Dp-q9WW-C34XVPIgy-206">
          <mxGeometry width="50" height="50" relative="1" as="geometry">
            <mxPoint x="25.714" y="77.14285714285715" as="sourcePoint" />
            <mxPoint x="25.714" as="targetPoint" />
          </mxGeometry>
        </mxCell>
        <mxCell id="sF0Dp-q9WW-C34XVPIgy-208" value="" style="endArrow=none;html=1;rounded=0;" edge="1" parent="sF0Dp-q9WW-C34XVPIgy-206">
          <mxGeometry width="50" height="50" relative="1" as="geometry">
            <mxPoint x="51.428" y="77.14285714285715" as="sourcePoint" />
            <mxPoint x="51.428" as="targetPoint" />
          </mxGeometry>
        </mxCell>
        <mxCell id="sF0Dp-q9WW-C34XVPIgy-209" value="" style="endArrow=none;html=1;rounded=0;" edge="1" parent="sF0Dp-q9WW-C34XVPIgy-206">
          <mxGeometry width="50" height="50" relative="1" as="geometry">
            <mxPoint x="77.142" y="25.714285714285715" as="sourcePoint" />
            <mxPoint y="25.714285714285715" as="targetPoint" />
          </mxGeometry>
        </mxCell>
        <mxCell id="sF0Dp-q9WW-C34XVPIgy-210" value="" style="endArrow=none;html=1;rounded=0;" edge="1" parent="sF0Dp-q9WW-C34XVPIgy-206">
          <mxGeometry width="50" height="50" relative="1" as="geometry">
            <mxPoint x="77.142" y="51.42857142857143" as="sourcePoint" />
            <mxPoint y="51.42857142857143" as="targetPoint" />
          </mxGeometry>
        </mxCell>
        <mxCell id="sF0Dp-q9WW-C34XVPIgy-211" value="" style="group" vertex="1" connectable="0" parent="sF0Dp-q9WW-C34XVPIgy-200">
          <mxGeometry x="179.998" width="77.142" height="77.14285714285715" as="geometry" />
        </mxCell>
        <mxCell id="sF0Dp-q9WW-C34XVPIgy-212" value="" style="endArrow=none;html=1;rounded=0;" edge="1" parent="sF0Dp-q9WW-C34XVPIgy-211">
          <mxGeometry width="50" height="50" relative="1" as="geometry">
            <mxPoint x="25.714" y="77.14285714285715" as="sourcePoint" />
            <mxPoint x="25.714" as="targetPoint" />
          </mxGeometry>
        </mxCell>
        <mxCell id="sF0Dp-q9WW-C34XVPIgy-213" value="" style="endArrow=none;html=1;rounded=0;" edge="1" parent="sF0Dp-q9WW-C34XVPIgy-211">
          <mxGeometry width="50" height="50" relative="1" as="geometry">
            <mxPoint x="51.428" y="77.14285714285715" as="sourcePoint" />
            <mxPoint x="51.428" as="targetPoint" />
          </mxGeometry>
        </mxCell>
        <mxCell id="sF0Dp-q9WW-C34XVPIgy-214" value="" style="endArrow=none;html=1;rounded=0;" edge="1" parent="sF0Dp-q9WW-C34XVPIgy-211">
          <mxGeometry width="50" height="50" relative="1" as="geometry">
            <mxPoint x="77.142" y="25.714285714285715" as="sourcePoint" />
            <mxPoint y="25.714285714285715" as="targetPoint" />
          </mxGeometry>
        </mxCell>
        <mxCell id="sF0Dp-q9WW-C34XVPIgy-215" value="" style="endArrow=none;html=1;rounded=0;" edge="1" parent="sF0Dp-q9WW-C34XVPIgy-211">
          <mxGeometry width="50" height="50" relative="1" as="geometry">
            <mxPoint x="77.142" y="51.42857142857143" as="sourcePoint" />
            <mxPoint y="51.42857142857143" as="targetPoint" />
          </mxGeometry>
        </mxCell>
        <mxCell id="sF0Dp-q9WW-C34XVPIgy-216" value="" style="endArrow=none;html=1;rounded=0;" edge="1" parent="sF0Dp-q9WW-C34XVPIgy-166">
          <mxGeometry width="50" height="50" relative="1" as="geometry">
            <mxPoint x="83.5705" y="270" as="sourcePoint" />
            <mxPoint x="83.5705" as="targetPoint" />
          </mxGeometry>
        </mxCell>
        <mxCell id="sF0Dp-q9WW-C34XVPIgy-217" value="" style="endArrow=none;html=1;rounded=0;" edge="1" parent="sF0Dp-q9WW-C34XVPIgy-166">
          <mxGeometry width="50" height="50" relative="1" as="geometry">
            <mxPoint y="83.57142857142858" as="sourcePoint" />
            <mxPoint x="257.14" y="83.57142857142858" as="targetPoint" />
          </mxGeometry>
        </mxCell>
        <mxCell id="sF0Dp-q9WW-C34XVPIgy-218" value="" style="endArrow=none;html=1;rounded=0;" edge="1" parent="sF0Dp-q9WW-C34XVPIgy-166">
          <mxGeometry width="50" height="50" relative="1" as="geometry">
            <mxPoint y="173.57142857142858" as="sourcePoint" />
            <mxPoint x="257.14" y="173.57142857142858" as="targetPoint" />
          </mxGeometry>
        </mxCell>
        <mxCell id="sF0Dp-q9WW-C34XVPIgy-434" value="" style="endArrow=none;html=1;rounded=0;strokeWidth=3;" edge="1" parent="sF0Dp-q9WW-C34XVPIgy-166">
          <mxGeometry width="50" height="50" relative="1" as="geometry">
            <mxPoint x="-284" y="270" as="sourcePoint" />
            <mxPoint x="526" y="270" as="targetPoint" />
          </mxGeometry>
        </mxCell>
        <mxCell id="sF0Dp-q9WW-C34XVPIgy-219" value="" style="group" vertex="1" connectable="0" parent="1">
          <mxGeometry x="560" y="280" width="257.14" height="270" as="geometry" />
        </mxCell>
        <mxCell id="sF0Dp-q9WW-C34XVPIgy-220" value="" style="group" vertex="1" connectable="0" parent="sF0Dp-q9WW-C34XVPIgy-219">
          <mxGeometry y="180" width="257.14" height="77.14285714285715" as="geometry" />
        </mxCell>
        <mxCell id="sF0Dp-q9WW-C34XVPIgy-221" value="" style="group" vertex="1" connectable="0" parent="sF0Dp-q9WW-C34XVPIgy-220">
          <mxGeometry width="77.142" height="77.14285714285715" as="geometry" />
        </mxCell>
        <mxCell id="sF0Dp-q9WW-C34XVPIgy-222" value="" style="endArrow=none;html=1;rounded=0;" edge="1" parent="sF0Dp-q9WW-C34XVPIgy-221">
          <mxGeometry width="50" height="50" relative="1" as="geometry">
            <mxPoint x="25.714" y="77.14285714285715" as="sourcePoint" />
            <mxPoint x="25.714" as="targetPoint" />
          </mxGeometry>
        </mxCell>
        <mxCell id="sF0Dp-q9WW-C34XVPIgy-223" value="" style="endArrow=none;html=1;rounded=0;" edge="1" parent="sF0Dp-q9WW-C34XVPIgy-221">
          <mxGeometry width="50" height="50" relative="1" as="geometry">
            <mxPoint x="51.428" y="77.14285714285715" as="sourcePoint" />
            <mxPoint x="51.428" as="targetPoint" />
          </mxGeometry>
        </mxCell>
        <mxCell id="sF0Dp-q9WW-C34XVPIgy-224" value="" style="endArrow=none;html=1;rounded=0;" edge="1" parent="sF0Dp-q9WW-C34XVPIgy-221">
          <mxGeometry width="50" height="50" relative="1" as="geometry">
            <mxPoint x="77.142" y="25.714285714285715" as="sourcePoint" />
            <mxPoint y="25.714285714285715" as="targetPoint" />
          </mxGeometry>
        </mxCell>
        <mxCell id="sF0Dp-q9WW-C34XVPIgy-225" value="" style="endArrow=none;html=1;rounded=0;" edge="1" parent="sF0Dp-q9WW-C34XVPIgy-221">
          <mxGeometry width="50" height="50" relative="1" as="geometry">
            <mxPoint x="77.142" y="51.42857142857143" as="sourcePoint" />
            <mxPoint y="51.42857142857143" as="targetPoint" />
          </mxGeometry>
        </mxCell>
        <mxCell id="sF0Dp-q9WW-C34XVPIgy-226" value="" style="group" vertex="1" connectable="0" parent="sF0Dp-q9WW-C34XVPIgy-220">
          <mxGeometry x="89.999" width="77.142" height="77.14285714285715" as="geometry" />
        </mxCell>
        <mxCell id="sF0Dp-q9WW-C34XVPIgy-227" value="" style="endArrow=none;html=1;rounded=0;" edge="1" parent="sF0Dp-q9WW-C34XVPIgy-226">
          <mxGeometry width="50" height="50" relative="1" as="geometry">
            <mxPoint x="25.714" y="77.14285714285715" as="sourcePoint" />
            <mxPoint x="25.714" as="targetPoint" />
          </mxGeometry>
        </mxCell>
        <mxCell id="sF0Dp-q9WW-C34XVPIgy-228" value="" style="endArrow=none;html=1;rounded=0;" edge="1" parent="sF0Dp-q9WW-C34XVPIgy-226">
          <mxGeometry width="50" height="50" relative="1" as="geometry">
            <mxPoint x="51.428" y="77.14285714285715" as="sourcePoint" />
            <mxPoint x="51.428" as="targetPoint" />
          </mxGeometry>
        </mxCell>
        <mxCell id="sF0Dp-q9WW-C34XVPIgy-229" value="" style="endArrow=none;html=1;rounded=0;" edge="1" parent="sF0Dp-q9WW-C34XVPIgy-226">
          <mxGeometry width="50" height="50" relative="1" as="geometry">
            <mxPoint x="77.142" y="25.714285714285715" as="sourcePoint" />
            <mxPoint y="25.714285714285715" as="targetPoint" />
          </mxGeometry>
        </mxCell>
        <mxCell id="sF0Dp-q9WW-C34XVPIgy-230" value="" style="endArrow=none;html=1;rounded=0;" edge="1" parent="sF0Dp-q9WW-C34XVPIgy-226">
          <mxGeometry width="50" height="50" relative="1" as="geometry">
            <mxPoint x="77.142" y="51.42857142857143" as="sourcePoint" />
            <mxPoint y="51.42857142857143" as="targetPoint" />
          </mxGeometry>
        </mxCell>
        <mxCell id="sF0Dp-q9WW-C34XVPIgy-231" value="" style="group" vertex="1" connectable="0" parent="sF0Dp-q9WW-C34XVPIgy-220">
          <mxGeometry x="179.998" width="77.142" height="77.14285714285715" as="geometry" />
        </mxCell>
        <mxCell id="sF0Dp-q9WW-C34XVPIgy-232" value="" style="endArrow=none;html=1;rounded=0;" edge="1" parent="sF0Dp-q9WW-C34XVPIgy-231">
          <mxGeometry width="50" height="50" relative="1" as="geometry">
            <mxPoint x="25.714" y="77.14285714285715" as="sourcePoint" />
            <mxPoint x="25.714" as="targetPoint" />
          </mxGeometry>
        </mxCell>
        <mxCell id="sF0Dp-q9WW-C34XVPIgy-233" value="" style="endArrow=none;html=1;rounded=0;" edge="1" parent="sF0Dp-q9WW-C34XVPIgy-231">
          <mxGeometry width="50" height="50" relative="1" as="geometry">
            <mxPoint x="51.428" y="77.14285714285715" as="sourcePoint" />
            <mxPoint x="51.428" as="targetPoint" />
          </mxGeometry>
        </mxCell>
        <mxCell id="sF0Dp-q9WW-C34XVPIgy-234" value="" style="endArrow=none;html=1;rounded=0;" edge="1" parent="sF0Dp-q9WW-C34XVPIgy-231">
          <mxGeometry width="50" height="50" relative="1" as="geometry">
            <mxPoint x="77.142" y="25.714285714285715" as="sourcePoint" />
            <mxPoint y="25.714285714285715" as="targetPoint" />
          </mxGeometry>
        </mxCell>
        <mxCell id="sF0Dp-q9WW-C34XVPIgy-235" value="" style="endArrow=none;html=1;rounded=0;" edge="1" parent="sF0Dp-q9WW-C34XVPIgy-231">
          <mxGeometry width="50" height="50" relative="1" as="geometry">
            <mxPoint x="77.142" y="51.42857142857143" as="sourcePoint" />
            <mxPoint y="51.42857142857143" as="targetPoint" />
          </mxGeometry>
        </mxCell>
        <mxCell id="sF0Dp-q9WW-C34XVPIgy-236" value="" style="endArrow=none;html=1;rounded=0;" edge="1" parent="sF0Dp-q9WW-C34XVPIgy-220">
          <mxGeometry width="50" height="50" relative="1" as="geometry">
            <mxPoint x="173.56949999999998" y="90" as="sourcePoint" />
            <mxPoint x="173.56949999999998" y="-180" as="targetPoint" />
          </mxGeometry>
        </mxCell>
        <mxCell id="sF0Dp-q9WW-C34XVPIgy-237" value="" style="group" vertex="1" connectable="0" parent="sF0Dp-q9WW-C34XVPIgy-219">
          <mxGeometry y="90" width="257.14" height="77.14285714285715" as="geometry" />
        </mxCell>
        <mxCell id="sF0Dp-q9WW-C34XVPIgy-238" value="" style="group" vertex="1" connectable="0" parent="sF0Dp-q9WW-C34XVPIgy-237">
          <mxGeometry width="77.142" height="77.14285714285715" as="geometry" />
        </mxCell>
        <mxCell id="sF0Dp-q9WW-C34XVPIgy-239" value="" style="endArrow=none;html=1;rounded=0;" edge="1" parent="sF0Dp-q9WW-C34XVPIgy-238">
          <mxGeometry width="50" height="50" relative="1" as="geometry">
            <mxPoint x="25.714" y="77.14285714285715" as="sourcePoint" />
            <mxPoint x="25.714" as="targetPoint" />
          </mxGeometry>
        </mxCell>
        <mxCell id="sF0Dp-q9WW-C34XVPIgy-240" value="" style="endArrow=none;html=1;rounded=0;" edge="1" parent="sF0Dp-q9WW-C34XVPIgy-238">
          <mxGeometry width="50" height="50" relative="1" as="geometry">
            <mxPoint x="51.428" y="77.14285714285715" as="sourcePoint" />
            <mxPoint x="51.428" as="targetPoint" />
          </mxGeometry>
        </mxCell>
        <mxCell id="sF0Dp-q9WW-C34XVPIgy-241" value="" style="endArrow=none;html=1;rounded=0;" edge="1" parent="sF0Dp-q9WW-C34XVPIgy-238">
          <mxGeometry width="50" height="50" relative="1" as="geometry">
            <mxPoint x="77.142" y="25.714285714285715" as="sourcePoint" />
            <mxPoint y="25.714285714285715" as="targetPoint" />
          </mxGeometry>
        </mxCell>
        <mxCell id="sF0Dp-q9WW-C34XVPIgy-242" value="" style="endArrow=none;html=1;rounded=0;" edge="1" parent="sF0Dp-q9WW-C34XVPIgy-238">
          <mxGeometry width="50" height="50" relative="1" as="geometry">
            <mxPoint x="77.142" y="51.42857142857143" as="sourcePoint" />
            <mxPoint y="51.42857142857143" as="targetPoint" />
          </mxGeometry>
        </mxCell>
        <mxCell id="sF0Dp-q9WW-C34XVPIgy-243" value="" style="group" vertex="1" connectable="0" parent="sF0Dp-q9WW-C34XVPIgy-237">
          <mxGeometry x="89.999" width="77.142" height="77.14285714285715" as="geometry" />
        </mxCell>
        <mxCell id="sF0Dp-q9WW-C34XVPIgy-244" value="" style="endArrow=none;html=1;rounded=0;" edge="1" parent="sF0Dp-q9WW-C34XVPIgy-243">
          <mxGeometry width="50" height="50" relative="1" as="geometry">
            <mxPoint x="25.714" y="77.14285714285715" as="sourcePoint" />
            <mxPoint x="25.714" as="targetPoint" />
          </mxGeometry>
        </mxCell>
        <mxCell id="sF0Dp-q9WW-C34XVPIgy-245" value="" style="endArrow=none;html=1;rounded=0;" edge="1" parent="sF0Dp-q9WW-C34XVPIgy-243">
          <mxGeometry width="50" height="50" relative="1" as="geometry">
            <mxPoint x="51.428" y="77.14285714285715" as="sourcePoint" />
            <mxPoint x="51.428" as="targetPoint" />
          </mxGeometry>
        </mxCell>
        <mxCell id="sF0Dp-q9WW-C34XVPIgy-246" value="" style="endArrow=none;html=1;rounded=0;" edge="1" parent="sF0Dp-q9WW-C34XVPIgy-243">
          <mxGeometry width="50" height="50" relative="1" as="geometry">
            <mxPoint x="77.142" y="25.714285714285715" as="sourcePoint" />
            <mxPoint y="25.714285714285715" as="targetPoint" />
          </mxGeometry>
        </mxCell>
        <mxCell id="sF0Dp-q9WW-C34XVPIgy-247" value="" style="endArrow=none;html=1;rounded=0;" edge="1" parent="sF0Dp-q9WW-C34XVPIgy-243">
          <mxGeometry width="50" height="50" relative="1" as="geometry">
            <mxPoint x="77.142" y="51.42857142857143" as="sourcePoint" />
            <mxPoint y="51.42857142857143" as="targetPoint" />
          </mxGeometry>
        </mxCell>
        <mxCell id="sF0Dp-q9WW-C34XVPIgy-248" value="" style="group" vertex="1" connectable="0" parent="sF0Dp-q9WW-C34XVPIgy-237">
          <mxGeometry x="179.998" width="77.142" height="77.14285714285715" as="geometry" />
        </mxCell>
        <mxCell id="sF0Dp-q9WW-C34XVPIgy-249" value="" style="endArrow=none;html=1;rounded=0;" edge="1" parent="sF0Dp-q9WW-C34XVPIgy-248">
          <mxGeometry width="50" height="50" relative="1" as="geometry">
            <mxPoint x="25.714" y="77.14285714285715" as="sourcePoint" />
            <mxPoint x="25.714" as="targetPoint" />
          </mxGeometry>
        </mxCell>
        <mxCell id="sF0Dp-q9WW-C34XVPIgy-250" value="" style="endArrow=none;html=1;rounded=0;" edge="1" parent="sF0Dp-q9WW-C34XVPIgy-248">
          <mxGeometry width="50" height="50" relative="1" as="geometry">
            <mxPoint x="51.428" y="77.14285714285715" as="sourcePoint" />
            <mxPoint x="51.428" as="targetPoint" />
          </mxGeometry>
        </mxCell>
        <mxCell id="sF0Dp-q9WW-C34XVPIgy-251" value="" style="endArrow=none;html=1;rounded=0;" edge="1" parent="sF0Dp-q9WW-C34XVPIgy-248">
          <mxGeometry width="50" height="50" relative="1" as="geometry">
            <mxPoint x="77.142" y="25.714285714285715" as="sourcePoint" />
            <mxPoint y="25.714285714285715" as="targetPoint" />
          </mxGeometry>
        </mxCell>
        <mxCell id="sF0Dp-q9WW-C34XVPIgy-252" value="" style="endArrow=none;html=1;rounded=0;" edge="1" parent="sF0Dp-q9WW-C34XVPIgy-248">
          <mxGeometry width="50" height="50" relative="1" as="geometry">
            <mxPoint x="77.142" y="51.42857142857143" as="sourcePoint" />
            <mxPoint y="51.42857142857143" as="targetPoint" />
          </mxGeometry>
        </mxCell>
        <mxCell id="sF0Dp-q9WW-C34XVPIgy-253" value="" style="group" vertex="1" connectable="0" parent="sF0Dp-q9WW-C34XVPIgy-219">
          <mxGeometry width="257.14" height="77.14285714285715" as="geometry" />
        </mxCell>
        <mxCell id="sF0Dp-q9WW-C34XVPIgy-254" value="" style="group" vertex="1" connectable="0" parent="sF0Dp-q9WW-C34XVPIgy-253">
          <mxGeometry width="77.142" height="77.14285714285715" as="geometry" />
        </mxCell>
        <mxCell id="sF0Dp-q9WW-C34XVPIgy-255" value="" style="endArrow=none;html=1;rounded=0;" edge="1" parent="sF0Dp-q9WW-C34XVPIgy-254">
          <mxGeometry width="50" height="50" relative="1" as="geometry">
            <mxPoint x="25.714" y="77.14285714285715" as="sourcePoint" />
            <mxPoint x="25.714" as="targetPoint" />
          </mxGeometry>
        </mxCell>
        <mxCell id="sF0Dp-q9WW-C34XVPIgy-256" value="" style="endArrow=none;html=1;rounded=0;" edge="1" parent="sF0Dp-q9WW-C34XVPIgy-254">
          <mxGeometry width="50" height="50" relative="1" as="geometry">
            <mxPoint x="51.428" y="77.14285714285715" as="sourcePoint" />
            <mxPoint x="51.428" as="targetPoint" />
          </mxGeometry>
        </mxCell>
        <mxCell id="sF0Dp-q9WW-C34XVPIgy-257" value="" style="endArrow=none;html=1;rounded=0;" edge="1" parent="sF0Dp-q9WW-C34XVPIgy-254">
          <mxGeometry width="50" height="50" relative="1" as="geometry">
            <mxPoint x="77.142" y="25.714285714285715" as="sourcePoint" />
            <mxPoint y="25.714285714285715" as="targetPoint" />
          </mxGeometry>
        </mxCell>
        <mxCell id="sF0Dp-q9WW-C34XVPIgy-258" value="" style="endArrow=none;html=1;rounded=0;" edge="1" parent="sF0Dp-q9WW-C34XVPIgy-254">
          <mxGeometry width="50" height="50" relative="1" as="geometry">
            <mxPoint x="77.142" y="51.42857142857143" as="sourcePoint" />
            <mxPoint y="51.42857142857143" as="targetPoint" />
          </mxGeometry>
        </mxCell>
        <mxCell id="sF0Dp-q9WW-C34XVPIgy-259" value="" style="group" vertex="1" connectable="0" parent="sF0Dp-q9WW-C34XVPIgy-253">
          <mxGeometry x="89.999" width="77.142" height="77.14285714285715" as="geometry" />
        </mxCell>
        <mxCell id="sF0Dp-q9WW-C34XVPIgy-260" value="" style="endArrow=none;html=1;rounded=0;" edge="1" parent="sF0Dp-q9WW-C34XVPIgy-259">
          <mxGeometry width="50" height="50" relative="1" as="geometry">
            <mxPoint x="25.714" y="77.14285714285715" as="sourcePoint" />
            <mxPoint x="25.714" as="targetPoint" />
          </mxGeometry>
        </mxCell>
        <mxCell id="sF0Dp-q9WW-C34XVPIgy-261" value="" style="endArrow=none;html=1;rounded=0;" edge="1" parent="sF0Dp-q9WW-C34XVPIgy-259">
          <mxGeometry width="50" height="50" relative="1" as="geometry">
            <mxPoint x="51.428" y="77.14285714285715" as="sourcePoint" />
            <mxPoint x="51.428" as="targetPoint" />
          </mxGeometry>
        </mxCell>
        <mxCell id="sF0Dp-q9WW-C34XVPIgy-262" value="" style="endArrow=none;html=1;rounded=0;" edge="1" parent="sF0Dp-q9WW-C34XVPIgy-259">
          <mxGeometry width="50" height="50" relative="1" as="geometry">
            <mxPoint x="77.142" y="25.714285714285715" as="sourcePoint" />
            <mxPoint y="25.714285714285715" as="targetPoint" />
          </mxGeometry>
        </mxCell>
        <mxCell id="sF0Dp-q9WW-C34XVPIgy-263" value="" style="endArrow=none;html=1;rounded=0;" edge="1" parent="sF0Dp-q9WW-C34XVPIgy-259">
          <mxGeometry width="50" height="50" relative="1" as="geometry">
            <mxPoint x="77.142" y="51.42857142857143" as="sourcePoint" />
            <mxPoint y="51.42857142857143" as="targetPoint" />
          </mxGeometry>
        </mxCell>
        <mxCell id="sF0Dp-q9WW-C34XVPIgy-264" value="" style="group" vertex="1" connectable="0" parent="sF0Dp-q9WW-C34XVPIgy-253">
          <mxGeometry x="179.998" width="77.142" height="77.14285714285715" as="geometry" />
        </mxCell>
        <mxCell id="sF0Dp-q9WW-C34XVPIgy-265" value="" style="endArrow=none;html=1;rounded=0;" edge="1" parent="sF0Dp-q9WW-C34XVPIgy-264">
          <mxGeometry width="50" height="50" relative="1" as="geometry">
            <mxPoint x="25.714" y="77.14285714285715" as="sourcePoint" />
            <mxPoint x="25.714" as="targetPoint" />
          </mxGeometry>
        </mxCell>
        <mxCell id="sF0Dp-q9WW-C34XVPIgy-266" value="" style="endArrow=none;html=1;rounded=0;" edge="1" parent="sF0Dp-q9WW-C34XVPIgy-264">
          <mxGeometry width="50" height="50" relative="1" as="geometry">
            <mxPoint x="51.428" y="77.14285714285715" as="sourcePoint" />
            <mxPoint x="51.428" as="targetPoint" />
          </mxGeometry>
        </mxCell>
        <mxCell id="sF0Dp-q9WW-C34XVPIgy-267" value="" style="endArrow=none;html=1;rounded=0;" edge="1" parent="sF0Dp-q9WW-C34XVPIgy-264">
          <mxGeometry width="50" height="50" relative="1" as="geometry">
            <mxPoint x="77.142" y="25.714285714285715" as="sourcePoint" />
            <mxPoint y="25.714285714285715" as="targetPoint" />
          </mxGeometry>
        </mxCell>
        <mxCell id="sF0Dp-q9WW-C34XVPIgy-268" value="" style="endArrow=none;html=1;rounded=0;" edge="1" parent="sF0Dp-q9WW-C34XVPIgy-264">
          <mxGeometry width="50" height="50" relative="1" as="geometry">
            <mxPoint x="77.142" y="51.42857142857143" as="sourcePoint" />
            <mxPoint y="51.42857142857143" as="targetPoint" />
          </mxGeometry>
        </mxCell>
        <mxCell id="sF0Dp-q9WW-C34XVPIgy-269" value="" style="endArrow=none;html=1;rounded=0;" edge="1" parent="sF0Dp-q9WW-C34XVPIgy-219">
          <mxGeometry width="50" height="50" relative="1" as="geometry">
            <mxPoint x="83.5705" y="270" as="sourcePoint" />
            <mxPoint x="83.5705" as="targetPoint" />
          </mxGeometry>
        </mxCell>
        <mxCell id="sF0Dp-q9WW-C34XVPIgy-270" value="" style="endArrow=none;html=1;rounded=0;" edge="1" parent="sF0Dp-q9WW-C34XVPIgy-219">
          <mxGeometry width="50" height="50" relative="1" as="geometry">
            <mxPoint y="83.57142857142858" as="sourcePoint" />
            <mxPoint x="257.14" y="83.57142857142858" as="targetPoint" />
          </mxGeometry>
        </mxCell>
        <mxCell id="sF0Dp-q9WW-C34XVPIgy-271" value="" style="endArrow=none;html=1;rounded=0;" edge="1" parent="sF0Dp-q9WW-C34XVPIgy-219">
          <mxGeometry width="50" height="50" relative="1" as="geometry">
            <mxPoint y="173.57142857142858" as="sourcePoint" />
            <mxPoint x="257.14" y="173.57142857142858" as="targetPoint" />
          </mxGeometry>
        </mxCell>
        <mxCell id="sF0Dp-q9WW-C34XVPIgy-272" value="" style="group" vertex="1" connectable="0" parent="1">
          <mxGeometry y="560" width="257.14" height="270" as="geometry" />
        </mxCell>
        <mxCell id="sF0Dp-q9WW-C34XVPIgy-273" value="" style="group" vertex="1" connectable="0" parent="sF0Dp-q9WW-C34XVPIgy-272">
          <mxGeometry y="180" width="257.14" height="77.14285714285715" as="geometry" />
        </mxCell>
        <mxCell id="sF0Dp-q9WW-C34XVPIgy-274" value="" style="group" vertex="1" connectable="0" parent="sF0Dp-q9WW-C34XVPIgy-273">
          <mxGeometry width="77.142" height="77.14285714285715" as="geometry" />
        </mxCell>
        <mxCell id="sF0Dp-q9WW-C34XVPIgy-275" value="" style="endArrow=none;html=1;rounded=0;" edge="1" parent="sF0Dp-q9WW-C34XVPIgy-274">
          <mxGeometry width="50" height="50" relative="1" as="geometry">
            <mxPoint x="25.714" y="77.14285714285715" as="sourcePoint" />
            <mxPoint x="25.714" as="targetPoint" />
          </mxGeometry>
        </mxCell>
        <mxCell id="sF0Dp-q9WW-C34XVPIgy-276" value="" style="endArrow=none;html=1;rounded=0;" edge="1" parent="sF0Dp-q9WW-C34XVPIgy-274">
          <mxGeometry width="50" height="50" relative="1" as="geometry">
            <mxPoint x="51.428" y="77.14285714285715" as="sourcePoint" />
            <mxPoint x="51.428" as="targetPoint" />
          </mxGeometry>
        </mxCell>
        <mxCell id="sF0Dp-q9WW-C34XVPIgy-277" value="" style="endArrow=none;html=1;rounded=0;" edge="1" parent="sF0Dp-q9WW-C34XVPIgy-274">
          <mxGeometry width="50" height="50" relative="1" as="geometry">
            <mxPoint x="77.142" y="25.714285714285715" as="sourcePoint" />
            <mxPoint y="25.714285714285715" as="targetPoint" />
          </mxGeometry>
        </mxCell>
        <mxCell id="sF0Dp-q9WW-C34XVPIgy-278" value="" style="endArrow=none;html=1;rounded=0;" edge="1" parent="sF0Dp-q9WW-C34XVPIgy-274">
          <mxGeometry width="50" height="50" relative="1" as="geometry">
            <mxPoint x="77.142" y="51.42857142857143" as="sourcePoint" />
            <mxPoint y="51.42857142857143" as="targetPoint" />
          </mxGeometry>
        </mxCell>
        <mxCell id="sF0Dp-q9WW-C34XVPIgy-279" value="" style="group" vertex="1" connectable="0" parent="sF0Dp-q9WW-C34XVPIgy-273">
          <mxGeometry x="89.999" width="77.142" height="77.14285714285715" as="geometry" />
        </mxCell>
        <mxCell id="sF0Dp-q9WW-C34XVPIgy-280" value="" style="endArrow=none;html=1;rounded=0;" edge="1" parent="sF0Dp-q9WW-C34XVPIgy-279">
          <mxGeometry width="50" height="50" relative="1" as="geometry">
            <mxPoint x="25.714" y="77.14285714285715" as="sourcePoint" />
            <mxPoint x="25.714" as="targetPoint" />
          </mxGeometry>
        </mxCell>
        <mxCell id="sF0Dp-q9WW-C34XVPIgy-281" value="" style="endArrow=none;html=1;rounded=0;" edge="1" parent="sF0Dp-q9WW-C34XVPIgy-279">
          <mxGeometry width="50" height="50" relative="1" as="geometry">
            <mxPoint x="51.428" y="77.14285714285715" as="sourcePoint" />
            <mxPoint x="51.428" as="targetPoint" />
          </mxGeometry>
        </mxCell>
        <mxCell id="sF0Dp-q9WW-C34XVPIgy-282" value="" style="endArrow=none;html=1;rounded=0;" edge="1" parent="sF0Dp-q9WW-C34XVPIgy-279">
          <mxGeometry width="50" height="50" relative="1" as="geometry">
            <mxPoint x="77.142" y="25.714285714285715" as="sourcePoint" />
            <mxPoint y="25.714285714285715" as="targetPoint" />
          </mxGeometry>
        </mxCell>
        <mxCell id="sF0Dp-q9WW-C34XVPIgy-283" value="" style="endArrow=none;html=1;rounded=0;" edge="1" parent="sF0Dp-q9WW-C34XVPIgy-279">
          <mxGeometry width="50" height="50" relative="1" as="geometry">
            <mxPoint x="77.142" y="51.42857142857143" as="sourcePoint" />
            <mxPoint y="51.42857142857143" as="targetPoint" />
          </mxGeometry>
        </mxCell>
        <mxCell id="sF0Dp-q9WW-C34XVPIgy-284" value="" style="group" vertex="1" connectable="0" parent="sF0Dp-q9WW-C34XVPIgy-273">
          <mxGeometry x="179.998" width="77.142" height="77.14285714285715" as="geometry" />
        </mxCell>
        <mxCell id="sF0Dp-q9WW-C34XVPIgy-285" value="" style="endArrow=none;html=1;rounded=0;" edge="1" parent="sF0Dp-q9WW-C34XVPIgy-284">
          <mxGeometry width="50" height="50" relative="1" as="geometry">
            <mxPoint x="25.714" y="77.14285714285715" as="sourcePoint" />
            <mxPoint x="25.714" as="targetPoint" />
          </mxGeometry>
        </mxCell>
        <mxCell id="sF0Dp-q9WW-C34XVPIgy-286" value="" style="endArrow=none;html=1;rounded=0;" edge="1" parent="sF0Dp-q9WW-C34XVPIgy-284">
          <mxGeometry width="50" height="50" relative="1" as="geometry">
            <mxPoint x="51.428" y="77.14285714285715" as="sourcePoint" />
            <mxPoint x="51.428" as="targetPoint" />
          </mxGeometry>
        </mxCell>
        <mxCell id="sF0Dp-q9WW-C34XVPIgy-287" value="" style="endArrow=none;html=1;rounded=0;" edge="1" parent="sF0Dp-q9WW-C34XVPIgy-284">
          <mxGeometry width="50" height="50" relative="1" as="geometry">
            <mxPoint x="77.142" y="25.714285714285715" as="sourcePoint" />
            <mxPoint y="25.714285714285715" as="targetPoint" />
          </mxGeometry>
        </mxCell>
        <mxCell id="sF0Dp-q9WW-C34XVPIgy-288" value="" style="endArrow=none;html=1;rounded=0;" edge="1" parent="sF0Dp-q9WW-C34XVPIgy-284">
          <mxGeometry width="50" height="50" relative="1" as="geometry">
            <mxPoint x="77.142" y="51.42857142857143" as="sourcePoint" />
            <mxPoint y="51.42857142857143" as="targetPoint" />
          </mxGeometry>
        </mxCell>
        <mxCell id="sF0Dp-q9WW-C34XVPIgy-289" value="" style="endArrow=none;html=1;rounded=0;" edge="1" parent="sF0Dp-q9WW-C34XVPIgy-273">
          <mxGeometry width="50" height="50" relative="1" as="geometry">
            <mxPoint x="173.56949999999998" y="90" as="sourcePoint" />
            <mxPoint x="173.56949999999998" y="-180" as="targetPoint" />
          </mxGeometry>
        </mxCell>
        <mxCell id="sF0Dp-q9WW-C34XVPIgy-290" value="" style="group" vertex="1" connectable="0" parent="sF0Dp-q9WW-C34XVPIgy-272">
          <mxGeometry y="90" width="257.14" height="77.14285714285715" as="geometry" />
        </mxCell>
        <mxCell id="sF0Dp-q9WW-C34XVPIgy-291" value="" style="group" vertex="1" connectable="0" parent="sF0Dp-q9WW-C34XVPIgy-290">
          <mxGeometry width="77.142" height="77.14285714285715" as="geometry" />
        </mxCell>
        <mxCell id="sF0Dp-q9WW-C34XVPIgy-292" value="" style="endArrow=none;html=1;rounded=0;" edge="1" parent="sF0Dp-q9WW-C34XVPIgy-291">
          <mxGeometry width="50" height="50" relative="1" as="geometry">
            <mxPoint x="25.714" y="77.14285714285715" as="sourcePoint" />
            <mxPoint x="25.714" as="targetPoint" />
          </mxGeometry>
        </mxCell>
        <mxCell id="sF0Dp-q9WW-C34XVPIgy-293" value="" style="endArrow=none;html=1;rounded=0;" edge="1" parent="sF0Dp-q9WW-C34XVPIgy-291">
          <mxGeometry width="50" height="50" relative="1" as="geometry">
            <mxPoint x="51.428" y="77.14285714285715" as="sourcePoint" />
            <mxPoint x="51.428" as="targetPoint" />
          </mxGeometry>
        </mxCell>
        <mxCell id="sF0Dp-q9WW-C34XVPIgy-294" value="" style="endArrow=none;html=1;rounded=0;" edge="1" parent="sF0Dp-q9WW-C34XVPIgy-291">
          <mxGeometry width="50" height="50" relative="1" as="geometry">
            <mxPoint x="77.142" y="25.714285714285715" as="sourcePoint" />
            <mxPoint y="25.714285714285715" as="targetPoint" />
          </mxGeometry>
        </mxCell>
        <mxCell id="sF0Dp-q9WW-C34XVPIgy-295" value="" style="endArrow=none;html=1;rounded=0;" edge="1" parent="sF0Dp-q9WW-C34XVPIgy-291">
          <mxGeometry width="50" height="50" relative="1" as="geometry">
            <mxPoint x="77.142" y="51.42857142857143" as="sourcePoint" />
            <mxPoint y="51.42857142857143" as="targetPoint" />
          </mxGeometry>
        </mxCell>
        <mxCell id="sF0Dp-q9WW-C34XVPIgy-296" value="" style="group" vertex="1" connectable="0" parent="sF0Dp-q9WW-C34XVPIgy-290">
          <mxGeometry x="89.999" width="77.142" height="77.14285714285715" as="geometry" />
        </mxCell>
        <mxCell id="sF0Dp-q9WW-C34XVPIgy-297" value="" style="endArrow=none;html=1;rounded=0;" edge="1" parent="sF0Dp-q9WW-C34XVPIgy-296">
          <mxGeometry width="50" height="50" relative="1" as="geometry">
            <mxPoint x="25.714" y="77.14285714285715" as="sourcePoint" />
            <mxPoint x="25.714" as="targetPoint" />
          </mxGeometry>
        </mxCell>
        <mxCell id="sF0Dp-q9WW-C34XVPIgy-298" value="" style="endArrow=none;html=1;rounded=0;" edge="1" parent="sF0Dp-q9WW-C34XVPIgy-296">
          <mxGeometry width="50" height="50" relative="1" as="geometry">
            <mxPoint x="51.428" y="77.14285714285715" as="sourcePoint" />
            <mxPoint x="51.428" as="targetPoint" />
          </mxGeometry>
        </mxCell>
        <mxCell id="sF0Dp-q9WW-C34XVPIgy-299" value="" style="endArrow=none;html=1;rounded=0;" edge="1" parent="sF0Dp-q9WW-C34XVPIgy-296">
          <mxGeometry width="50" height="50" relative="1" as="geometry">
            <mxPoint x="77.142" y="25.714285714285715" as="sourcePoint" />
            <mxPoint y="25.714285714285715" as="targetPoint" />
          </mxGeometry>
        </mxCell>
        <mxCell id="sF0Dp-q9WW-C34XVPIgy-300" value="" style="endArrow=none;html=1;rounded=0;" edge="1" parent="sF0Dp-q9WW-C34XVPIgy-296">
          <mxGeometry width="50" height="50" relative="1" as="geometry">
            <mxPoint x="77.142" y="51.42857142857143" as="sourcePoint" />
            <mxPoint y="51.42857142857143" as="targetPoint" />
          </mxGeometry>
        </mxCell>
        <mxCell id="sF0Dp-q9WW-C34XVPIgy-301" value="" style="group" vertex="1" connectable="0" parent="sF0Dp-q9WW-C34XVPIgy-290">
          <mxGeometry x="179.998" width="77.142" height="77.14285714285715" as="geometry" />
        </mxCell>
        <mxCell id="sF0Dp-q9WW-C34XVPIgy-302" value="" style="endArrow=none;html=1;rounded=0;" edge="1" parent="sF0Dp-q9WW-C34XVPIgy-301">
          <mxGeometry width="50" height="50" relative="1" as="geometry">
            <mxPoint x="25.714" y="77.14285714285715" as="sourcePoint" />
            <mxPoint x="25.714" as="targetPoint" />
          </mxGeometry>
        </mxCell>
        <mxCell id="sF0Dp-q9WW-C34XVPIgy-303" value="" style="endArrow=none;html=1;rounded=0;" edge="1" parent="sF0Dp-q9WW-C34XVPIgy-301">
          <mxGeometry width="50" height="50" relative="1" as="geometry">
            <mxPoint x="51.428" y="77.14285714285715" as="sourcePoint" />
            <mxPoint x="51.428" as="targetPoint" />
          </mxGeometry>
        </mxCell>
        <mxCell id="sF0Dp-q9WW-C34XVPIgy-304" value="" style="endArrow=none;html=1;rounded=0;" edge="1" parent="sF0Dp-q9WW-C34XVPIgy-301">
          <mxGeometry width="50" height="50" relative="1" as="geometry">
            <mxPoint x="77.142" y="25.714285714285715" as="sourcePoint" />
            <mxPoint y="25.714285714285715" as="targetPoint" />
          </mxGeometry>
        </mxCell>
        <mxCell id="sF0Dp-q9WW-C34XVPIgy-305" value="" style="endArrow=none;html=1;rounded=0;" edge="1" parent="sF0Dp-q9WW-C34XVPIgy-301">
          <mxGeometry width="50" height="50" relative="1" as="geometry">
            <mxPoint x="77.142" y="51.42857142857143" as="sourcePoint" />
            <mxPoint y="51.42857142857143" as="targetPoint" />
          </mxGeometry>
        </mxCell>
        <mxCell id="sF0Dp-q9WW-C34XVPIgy-306" value="" style="group" vertex="1" connectable="0" parent="sF0Dp-q9WW-C34XVPIgy-272">
          <mxGeometry width="257.14" height="77.14285714285715" as="geometry" />
        </mxCell>
        <mxCell id="sF0Dp-q9WW-C34XVPIgy-307" value="" style="group" vertex="1" connectable="0" parent="sF0Dp-q9WW-C34XVPIgy-306">
          <mxGeometry width="77.142" height="77.14285714285715" as="geometry" />
        </mxCell>
        <mxCell id="sF0Dp-q9WW-C34XVPIgy-308" value="" style="endArrow=none;html=1;rounded=0;" edge="1" parent="sF0Dp-q9WW-C34XVPIgy-307">
          <mxGeometry width="50" height="50" relative="1" as="geometry">
            <mxPoint x="25.714" y="77.14285714285715" as="sourcePoint" />
            <mxPoint x="25.714" as="targetPoint" />
          </mxGeometry>
        </mxCell>
        <mxCell id="sF0Dp-q9WW-C34XVPIgy-309" value="" style="endArrow=none;html=1;rounded=0;" edge="1" parent="sF0Dp-q9WW-C34XVPIgy-307">
          <mxGeometry width="50" height="50" relative="1" as="geometry">
            <mxPoint x="51.428" y="77.14285714285715" as="sourcePoint" />
            <mxPoint x="51.428" as="targetPoint" />
          </mxGeometry>
        </mxCell>
        <mxCell id="sF0Dp-q9WW-C34XVPIgy-310" value="" style="endArrow=none;html=1;rounded=0;" edge="1" parent="sF0Dp-q9WW-C34XVPIgy-307">
          <mxGeometry width="50" height="50" relative="1" as="geometry">
            <mxPoint x="77.142" y="25.714285714285715" as="sourcePoint" />
            <mxPoint y="25.714285714285715" as="targetPoint" />
          </mxGeometry>
        </mxCell>
        <mxCell id="sF0Dp-q9WW-C34XVPIgy-311" value="" style="endArrow=none;html=1;rounded=0;" edge="1" parent="sF0Dp-q9WW-C34XVPIgy-307">
          <mxGeometry width="50" height="50" relative="1" as="geometry">
            <mxPoint x="77.142" y="51.42857142857143" as="sourcePoint" />
            <mxPoint y="51.42857142857143" as="targetPoint" />
          </mxGeometry>
        </mxCell>
        <mxCell id="sF0Dp-q9WW-C34XVPIgy-312" value="" style="group" vertex="1" connectable="0" parent="sF0Dp-q9WW-C34XVPIgy-306">
          <mxGeometry x="89.999" width="77.142" height="77.14285714285715" as="geometry" />
        </mxCell>
        <mxCell id="sF0Dp-q9WW-C34XVPIgy-313" value="" style="endArrow=none;html=1;rounded=0;" edge="1" parent="sF0Dp-q9WW-C34XVPIgy-312">
          <mxGeometry width="50" height="50" relative="1" as="geometry">
            <mxPoint x="25.714" y="77.14285714285715" as="sourcePoint" />
            <mxPoint x="25.714" as="targetPoint" />
          </mxGeometry>
        </mxCell>
        <mxCell id="sF0Dp-q9WW-C34XVPIgy-314" value="" style="endArrow=none;html=1;rounded=0;" edge="1" parent="sF0Dp-q9WW-C34XVPIgy-312">
          <mxGeometry width="50" height="50" relative="1" as="geometry">
            <mxPoint x="51.428" y="77.14285714285715" as="sourcePoint" />
            <mxPoint x="51.428" as="targetPoint" />
          </mxGeometry>
        </mxCell>
        <mxCell id="sF0Dp-q9WW-C34XVPIgy-315" value="" style="endArrow=none;html=1;rounded=0;" edge="1" parent="sF0Dp-q9WW-C34XVPIgy-312">
          <mxGeometry width="50" height="50" relative="1" as="geometry">
            <mxPoint x="77.142" y="25.714285714285715" as="sourcePoint" />
            <mxPoint y="25.714285714285715" as="targetPoint" />
          </mxGeometry>
        </mxCell>
        <mxCell id="sF0Dp-q9WW-C34XVPIgy-316" value="" style="endArrow=none;html=1;rounded=0;" edge="1" parent="sF0Dp-q9WW-C34XVPIgy-312">
          <mxGeometry width="50" height="50" relative="1" as="geometry">
            <mxPoint x="77.142" y="51.42857142857143" as="sourcePoint" />
            <mxPoint y="51.42857142857143" as="targetPoint" />
          </mxGeometry>
        </mxCell>
        <mxCell id="sF0Dp-q9WW-C34XVPIgy-317" value="" style="group" vertex="1" connectable="0" parent="sF0Dp-q9WW-C34XVPIgy-306">
          <mxGeometry x="179.998" width="77.142" height="77.14285714285715" as="geometry" />
        </mxCell>
        <mxCell id="sF0Dp-q9WW-C34XVPIgy-318" value="" style="endArrow=none;html=1;rounded=0;" edge="1" parent="sF0Dp-q9WW-C34XVPIgy-317">
          <mxGeometry width="50" height="50" relative="1" as="geometry">
            <mxPoint x="25.714" y="77.14285714285715" as="sourcePoint" />
            <mxPoint x="25.714" as="targetPoint" />
          </mxGeometry>
        </mxCell>
        <mxCell id="sF0Dp-q9WW-C34XVPIgy-319" value="" style="endArrow=none;html=1;rounded=0;" edge="1" parent="sF0Dp-q9WW-C34XVPIgy-317">
          <mxGeometry width="50" height="50" relative="1" as="geometry">
            <mxPoint x="51.428" y="77.14285714285715" as="sourcePoint" />
            <mxPoint x="51.428" as="targetPoint" />
          </mxGeometry>
        </mxCell>
        <mxCell id="sF0Dp-q9WW-C34XVPIgy-320" value="" style="endArrow=none;html=1;rounded=0;" edge="1" parent="sF0Dp-q9WW-C34XVPIgy-317">
          <mxGeometry width="50" height="50" relative="1" as="geometry">
            <mxPoint x="77.142" y="25.714285714285715" as="sourcePoint" />
            <mxPoint y="25.714285714285715" as="targetPoint" />
          </mxGeometry>
        </mxCell>
        <mxCell id="sF0Dp-q9WW-C34XVPIgy-321" value="" style="endArrow=none;html=1;rounded=0;" edge="1" parent="sF0Dp-q9WW-C34XVPIgy-317">
          <mxGeometry width="50" height="50" relative="1" as="geometry">
            <mxPoint x="77.142" y="51.42857142857143" as="sourcePoint" />
            <mxPoint y="51.42857142857143" as="targetPoint" />
          </mxGeometry>
        </mxCell>
        <mxCell id="sF0Dp-q9WW-C34XVPIgy-322" value="" style="endArrow=none;html=1;rounded=0;" edge="1" parent="sF0Dp-q9WW-C34XVPIgy-272">
          <mxGeometry width="50" height="50" relative="1" as="geometry">
            <mxPoint x="83.5705" y="270" as="sourcePoint" />
            <mxPoint x="83.5705" as="targetPoint" />
          </mxGeometry>
        </mxCell>
        <mxCell id="sF0Dp-q9WW-C34XVPIgy-323" value="" style="endArrow=none;html=1;rounded=0;" edge="1" parent="sF0Dp-q9WW-C34XVPIgy-272">
          <mxGeometry width="50" height="50" relative="1" as="geometry">
            <mxPoint y="83.57142857142858" as="sourcePoint" />
            <mxPoint x="257.14" y="83.57142857142858" as="targetPoint" />
          </mxGeometry>
        </mxCell>
        <mxCell id="sF0Dp-q9WW-C34XVPIgy-324" value="" style="endArrow=none;html=1;rounded=0;" edge="1" parent="sF0Dp-q9WW-C34XVPIgy-272">
          <mxGeometry width="50" height="50" relative="1" as="geometry">
            <mxPoint y="173.57142857142858" as="sourcePoint" />
            <mxPoint x="257.14" y="173.57142857142858" as="targetPoint" />
          </mxGeometry>
        </mxCell>
        <mxCell id="sF0Dp-q9WW-C34XVPIgy-325" value="" style="group" vertex="1" connectable="0" parent="1">
          <mxGeometry x="285" y="560" width="257.14" height="270" as="geometry" />
        </mxCell>
        <mxCell id="sF0Dp-q9WW-C34XVPIgy-326" value="" style="group" vertex="1" connectable="0" parent="sF0Dp-q9WW-C34XVPIgy-325">
          <mxGeometry y="180" width="257.14" height="77.14285714285715" as="geometry" />
        </mxCell>
        <mxCell id="sF0Dp-q9WW-C34XVPIgy-327" value="" style="group" vertex="1" connectable="0" parent="sF0Dp-q9WW-C34XVPIgy-326">
          <mxGeometry width="77.142" height="77.14285714285715" as="geometry" />
        </mxCell>
        <mxCell id="sF0Dp-q9WW-C34XVPIgy-328" value="" style="endArrow=none;html=1;rounded=0;" edge="1" parent="sF0Dp-q9WW-C34XVPIgy-327">
          <mxGeometry width="50" height="50" relative="1" as="geometry">
            <mxPoint x="25.714" y="77.14285714285715" as="sourcePoint" />
            <mxPoint x="25.714" as="targetPoint" />
          </mxGeometry>
        </mxCell>
        <mxCell id="sF0Dp-q9WW-C34XVPIgy-329" value="" style="endArrow=none;html=1;rounded=0;" edge="1" parent="sF0Dp-q9WW-C34XVPIgy-327">
          <mxGeometry width="50" height="50" relative="1" as="geometry">
            <mxPoint x="51.428" y="77.14285714285715" as="sourcePoint" />
            <mxPoint x="51.428" as="targetPoint" />
          </mxGeometry>
        </mxCell>
        <mxCell id="sF0Dp-q9WW-C34XVPIgy-330" value="" style="endArrow=none;html=1;rounded=0;" edge="1" parent="sF0Dp-q9WW-C34XVPIgy-327">
          <mxGeometry width="50" height="50" relative="1" as="geometry">
            <mxPoint x="77.142" y="25.714285714285715" as="sourcePoint" />
            <mxPoint y="25.714285714285715" as="targetPoint" />
          </mxGeometry>
        </mxCell>
        <mxCell id="sF0Dp-q9WW-C34XVPIgy-331" value="" style="endArrow=none;html=1;rounded=0;" edge="1" parent="sF0Dp-q9WW-C34XVPIgy-327">
          <mxGeometry width="50" height="50" relative="1" as="geometry">
            <mxPoint x="77.142" y="51.42857142857143" as="sourcePoint" />
            <mxPoint y="51.42857142857143" as="targetPoint" />
          </mxGeometry>
        </mxCell>
        <mxCell id="sF0Dp-q9WW-C34XVPIgy-332" value="" style="group" vertex="1" connectable="0" parent="sF0Dp-q9WW-C34XVPIgy-326">
          <mxGeometry x="89.999" width="77.142" height="77.14285714285715" as="geometry" />
        </mxCell>
        <mxCell id="sF0Dp-q9WW-C34XVPIgy-333" value="" style="endArrow=none;html=1;rounded=0;" edge="1" parent="sF0Dp-q9WW-C34XVPIgy-332">
          <mxGeometry width="50" height="50" relative="1" as="geometry">
            <mxPoint x="25.714" y="77.14285714285715" as="sourcePoint" />
            <mxPoint x="25.714" as="targetPoint" />
          </mxGeometry>
        </mxCell>
        <mxCell id="sF0Dp-q9WW-C34XVPIgy-334" value="" style="endArrow=none;html=1;rounded=0;" edge="1" parent="sF0Dp-q9WW-C34XVPIgy-332">
          <mxGeometry width="50" height="50" relative="1" as="geometry">
            <mxPoint x="51.428" y="77.14285714285715" as="sourcePoint" />
            <mxPoint x="51.428" as="targetPoint" />
          </mxGeometry>
        </mxCell>
        <mxCell id="sF0Dp-q9WW-C34XVPIgy-335" value="" style="endArrow=none;html=1;rounded=0;" edge="1" parent="sF0Dp-q9WW-C34XVPIgy-332">
          <mxGeometry width="50" height="50" relative="1" as="geometry">
            <mxPoint x="77.142" y="25.714285714285715" as="sourcePoint" />
            <mxPoint y="25.714285714285715" as="targetPoint" />
          </mxGeometry>
        </mxCell>
        <mxCell id="sF0Dp-q9WW-C34XVPIgy-336" value="" style="endArrow=none;html=1;rounded=0;" edge="1" parent="sF0Dp-q9WW-C34XVPIgy-332">
          <mxGeometry width="50" height="50" relative="1" as="geometry">
            <mxPoint x="77.142" y="51.42857142857143" as="sourcePoint" />
            <mxPoint y="51.42857142857143" as="targetPoint" />
          </mxGeometry>
        </mxCell>
        <mxCell id="sF0Dp-q9WW-C34XVPIgy-337" value="" style="group" vertex="1" connectable="0" parent="sF0Dp-q9WW-C34XVPIgy-326">
          <mxGeometry x="179.998" width="77.142" height="77.14285714285715" as="geometry" />
        </mxCell>
        <mxCell id="sF0Dp-q9WW-C34XVPIgy-338" value="" style="endArrow=none;html=1;rounded=0;" edge="1" parent="sF0Dp-q9WW-C34XVPIgy-337">
          <mxGeometry width="50" height="50" relative="1" as="geometry">
            <mxPoint x="25.714" y="77.14285714285715" as="sourcePoint" />
            <mxPoint x="25.714" as="targetPoint" />
          </mxGeometry>
        </mxCell>
        <mxCell id="sF0Dp-q9WW-C34XVPIgy-339" value="" style="endArrow=none;html=1;rounded=0;" edge="1" parent="sF0Dp-q9WW-C34XVPIgy-337">
          <mxGeometry width="50" height="50" relative="1" as="geometry">
            <mxPoint x="51.428" y="77.14285714285715" as="sourcePoint" />
            <mxPoint x="51.428" as="targetPoint" />
          </mxGeometry>
        </mxCell>
        <mxCell id="sF0Dp-q9WW-C34XVPIgy-340" value="" style="endArrow=none;html=1;rounded=0;" edge="1" parent="sF0Dp-q9WW-C34XVPIgy-337">
          <mxGeometry width="50" height="50" relative="1" as="geometry">
            <mxPoint x="77.142" y="25.714285714285715" as="sourcePoint" />
            <mxPoint y="25.714285714285715" as="targetPoint" />
          </mxGeometry>
        </mxCell>
        <mxCell id="sF0Dp-q9WW-C34XVPIgy-341" value="" style="endArrow=none;html=1;rounded=0;" edge="1" parent="sF0Dp-q9WW-C34XVPIgy-337">
          <mxGeometry width="50" height="50" relative="1" as="geometry">
            <mxPoint x="77.142" y="51.42857142857143" as="sourcePoint" />
            <mxPoint y="51.42857142857143" as="targetPoint" />
          </mxGeometry>
        </mxCell>
        <mxCell id="sF0Dp-q9WW-C34XVPIgy-342" value="" style="endArrow=none;html=1;rounded=0;" edge="1" parent="sF0Dp-q9WW-C34XVPIgy-326">
          <mxGeometry width="50" height="50" relative="1" as="geometry">
            <mxPoint x="173.56949999999998" y="90" as="sourcePoint" />
            <mxPoint x="173.56949999999998" y="-180" as="targetPoint" />
          </mxGeometry>
        </mxCell>
        <mxCell id="sF0Dp-q9WW-C34XVPIgy-343" value="" style="group" vertex="1" connectable="0" parent="sF0Dp-q9WW-C34XVPIgy-325">
          <mxGeometry y="90" width="257.14" height="77.14285714285715" as="geometry" />
        </mxCell>
        <mxCell id="sF0Dp-q9WW-C34XVPIgy-344" value="" style="group" vertex="1" connectable="0" parent="sF0Dp-q9WW-C34XVPIgy-343">
          <mxGeometry width="77.142" height="77.14285714285715" as="geometry" />
        </mxCell>
        <mxCell id="sF0Dp-q9WW-C34XVPIgy-345" value="" style="endArrow=none;html=1;rounded=0;" edge="1" parent="sF0Dp-q9WW-C34XVPIgy-344">
          <mxGeometry width="50" height="50" relative="1" as="geometry">
            <mxPoint x="25.714" y="77.14285714285715" as="sourcePoint" />
            <mxPoint x="25.714" as="targetPoint" />
          </mxGeometry>
        </mxCell>
        <mxCell id="sF0Dp-q9WW-C34XVPIgy-346" value="" style="endArrow=none;html=1;rounded=0;" edge="1" parent="sF0Dp-q9WW-C34XVPIgy-344">
          <mxGeometry width="50" height="50" relative="1" as="geometry">
            <mxPoint x="51.428" y="77.14285714285715" as="sourcePoint" />
            <mxPoint x="51.428" as="targetPoint" />
          </mxGeometry>
        </mxCell>
        <mxCell id="sF0Dp-q9WW-C34XVPIgy-347" value="" style="endArrow=none;html=1;rounded=0;" edge="1" parent="sF0Dp-q9WW-C34XVPIgy-344">
          <mxGeometry width="50" height="50" relative="1" as="geometry">
            <mxPoint x="77.142" y="25.714285714285715" as="sourcePoint" />
            <mxPoint y="25.714285714285715" as="targetPoint" />
          </mxGeometry>
        </mxCell>
        <mxCell id="sF0Dp-q9WW-C34XVPIgy-348" value="" style="endArrow=none;html=1;rounded=0;" edge="1" parent="sF0Dp-q9WW-C34XVPIgy-344">
          <mxGeometry width="50" height="50" relative="1" as="geometry">
            <mxPoint x="77.142" y="51.42857142857143" as="sourcePoint" />
            <mxPoint y="51.42857142857143" as="targetPoint" />
          </mxGeometry>
        </mxCell>
        <mxCell id="sF0Dp-q9WW-C34XVPIgy-349" value="" style="group" vertex="1" connectable="0" parent="sF0Dp-q9WW-C34XVPIgy-343">
          <mxGeometry x="89.999" width="77.142" height="77.14285714285715" as="geometry" />
        </mxCell>
        <mxCell id="sF0Dp-q9WW-C34XVPIgy-350" value="" style="endArrow=none;html=1;rounded=0;" edge="1" parent="sF0Dp-q9WW-C34XVPIgy-349">
          <mxGeometry width="50" height="50" relative="1" as="geometry">
            <mxPoint x="25.714" y="77.14285714285715" as="sourcePoint" />
            <mxPoint x="25.714" as="targetPoint" />
          </mxGeometry>
        </mxCell>
        <mxCell id="sF0Dp-q9WW-C34XVPIgy-351" value="" style="endArrow=none;html=1;rounded=0;" edge="1" parent="sF0Dp-q9WW-C34XVPIgy-349">
          <mxGeometry width="50" height="50" relative="1" as="geometry">
            <mxPoint x="51.428" y="77.14285714285715" as="sourcePoint" />
            <mxPoint x="51.428" as="targetPoint" />
          </mxGeometry>
        </mxCell>
        <mxCell id="sF0Dp-q9WW-C34XVPIgy-352" value="" style="endArrow=none;html=1;rounded=0;" edge="1" parent="sF0Dp-q9WW-C34XVPIgy-349">
          <mxGeometry width="50" height="50" relative="1" as="geometry">
            <mxPoint x="77.142" y="25.714285714285715" as="sourcePoint" />
            <mxPoint y="25.714285714285715" as="targetPoint" />
          </mxGeometry>
        </mxCell>
        <mxCell id="sF0Dp-q9WW-C34XVPIgy-353" value="" style="endArrow=none;html=1;rounded=0;" edge="1" parent="sF0Dp-q9WW-C34XVPIgy-349">
          <mxGeometry width="50" height="50" relative="1" as="geometry">
            <mxPoint x="77.142" y="51.42857142857143" as="sourcePoint" />
            <mxPoint y="51.42857142857143" as="targetPoint" />
          </mxGeometry>
        </mxCell>
        <mxCell id="sF0Dp-q9WW-C34XVPIgy-354" value="" style="group" vertex="1" connectable="0" parent="sF0Dp-q9WW-C34XVPIgy-343">
          <mxGeometry x="179.998" width="77.142" height="77.14285714285715" as="geometry" />
        </mxCell>
        <mxCell id="sF0Dp-q9WW-C34XVPIgy-355" value="" style="endArrow=none;html=1;rounded=0;" edge="1" parent="sF0Dp-q9WW-C34XVPIgy-354">
          <mxGeometry width="50" height="50" relative="1" as="geometry">
            <mxPoint x="25.714" y="77.14285714285715" as="sourcePoint" />
            <mxPoint x="25.714" as="targetPoint" />
          </mxGeometry>
        </mxCell>
        <mxCell id="sF0Dp-q9WW-C34XVPIgy-356" value="" style="endArrow=none;html=1;rounded=0;" edge="1" parent="sF0Dp-q9WW-C34XVPIgy-354">
          <mxGeometry width="50" height="50" relative="1" as="geometry">
            <mxPoint x="51.428" y="77.14285714285715" as="sourcePoint" />
            <mxPoint x="51.428" as="targetPoint" />
          </mxGeometry>
        </mxCell>
        <mxCell id="sF0Dp-q9WW-C34XVPIgy-357" value="" style="endArrow=none;html=1;rounded=0;" edge="1" parent="sF0Dp-q9WW-C34XVPIgy-354">
          <mxGeometry width="50" height="50" relative="1" as="geometry">
            <mxPoint x="77.142" y="25.714285714285715" as="sourcePoint" />
            <mxPoint y="25.714285714285715" as="targetPoint" />
          </mxGeometry>
        </mxCell>
        <mxCell id="sF0Dp-q9WW-C34XVPIgy-358" value="" style="endArrow=none;html=1;rounded=0;" edge="1" parent="sF0Dp-q9WW-C34XVPIgy-354">
          <mxGeometry width="50" height="50" relative="1" as="geometry">
            <mxPoint x="77.142" y="51.42857142857143" as="sourcePoint" />
            <mxPoint y="51.42857142857143" as="targetPoint" />
          </mxGeometry>
        </mxCell>
        <mxCell id="sF0Dp-q9WW-C34XVPIgy-359" value="" style="group" vertex="1" connectable="0" parent="sF0Dp-q9WW-C34XVPIgy-325">
          <mxGeometry width="257.14" height="77.14285714285715" as="geometry" />
        </mxCell>
        <mxCell id="sF0Dp-q9WW-C34XVPIgy-360" value="" style="group" vertex="1" connectable="0" parent="sF0Dp-q9WW-C34XVPIgy-359">
          <mxGeometry width="77.142" height="77.14285714285715" as="geometry" />
        </mxCell>
        <mxCell id="sF0Dp-q9WW-C34XVPIgy-361" value="" style="endArrow=none;html=1;rounded=0;" edge="1" parent="sF0Dp-q9WW-C34XVPIgy-360">
          <mxGeometry width="50" height="50" relative="1" as="geometry">
            <mxPoint x="25.714" y="77.14285714285715" as="sourcePoint" />
            <mxPoint x="25.714" as="targetPoint" />
          </mxGeometry>
        </mxCell>
        <mxCell id="sF0Dp-q9WW-C34XVPIgy-362" value="" style="endArrow=none;html=1;rounded=0;" edge="1" parent="sF0Dp-q9WW-C34XVPIgy-360">
          <mxGeometry width="50" height="50" relative="1" as="geometry">
            <mxPoint x="51.428" y="77.14285714285715" as="sourcePoint" />
            <mxPoint x="51.428" as="targetPoint" />
          </mxGeometry>
        </mxCell>
        <mxCell id="sF0Dp-q9WW-C34XVPIgy-363" value="" style="endArrow=none;html=1;rounded=0;" edge="1" parent="sF0Dp-q9WW-C34XVPIgy-360">
          <mxGeometry width="50" height="50" relative="1" as="geometry">
            <mxPoint x="77.142" y="25.714285714285715" as="sourcePoint" />
            <mxPoint y="25.714285714285715" as="targetPoint" />
          </mxGeometry>
        </mxCell>
        <mxCell id="sF0Dp-q9WW-C34XVPIgy-364" value="" style="endArrow=none;html=1;rounded=0;" edge="1" parent="sF0Dp-q9WW-C34XVPIgy-360">
          <mxGeometry width="50" height="50" relative="1" as="geometry">
            <mxPoint x="77.142" y="51.42857142857143" as="sourcePoint" />
            <mxPoint y="51.42857142857143" as="targetPoint" />
          </mxGeometry>
        </mxCell>
        <mxCell id="sF0Dp-q9WW-C34XVPIgy-365" value="" style="group" vertex="1" connectable="0" parent="sF0Dp-q9WW-C34XVPIgy-359">
          <mxGeometry x="89.999" width="77.142" height="77.14285714285715" as="geometry" />
        </mxCell>
        <mxCell id="sF0Dp-q9WW-C34XVPIgy-366" value="" style="endArrow=none;html=1;rounded=0;" edge="1" parent="sF0Dp-q9WW-C34XVPIgy-365">
          <mxGeometry width="50" height="50" relative="1" as="geometry">
            <mxPoint x="25.714" y="77.14285714285715" as="sourcePoint" />
            <mxPoint x="25.714" as="targetPoint" />
          </mxGeometry>
        </mxCell>
        <mxCell id="sF0Dp-q9WW-C34XVPIgy-367" value="" style="endArrow=none;html=1;rounded=0;" edge="1" parent="sF0Dp-q9WW-C34XVPIgy-365">
          <mxGeometry width="50" height="50" relative="1" as="geometry">
            <mxPoint x="51.428" y="77.14285714285715" as="sourcePoint" />
            <mxPoint x="51.428" as="targetPoint" />
          </mxGeometry>
        </mxCell>
        <mxCell id="sF0Dp-q9WW-C34XVPIgy-368" value="" style="endArrow=none;html=1;rounded=0;" edge="1" parent="sF0Dp-q9WW-C34XVPIgy-365">
          <mxGeometry width="50" height="50" relative="1" as="geometry">
            <mxPoint x="77.142" y="25.714285714285715" as="sourcePoint" />
            <mxPoint y="25.714285714285715" as="targetPoint" />
          </mxGeometry>
        </mxCell>
        <mxCell id="sF0Dp-q9WW-C34XVPIgy-369" value="" style="endArrow=none;html=1;rounded=0;" edge="1" parent="sF0Dp-q9WW-C34XVPIgy-365">
          <mxGeometry width="50" height="50" relative="1" as="geometry">
            <mxPoint x="77.142" y="51.42857142857143" as="sourcePoint" />
            <mxPoint y="51.42857142857143" as="targetPoint" />
          </mxGeometry>
        </mxCell>
        <mxCell id="sF0Dp-q9WW-C34XVPIgy-370" value="" style="group" vertex="1" connectable="0" parent="sF0Dp-q9WW-C34XVPIgy-359">
          <mxGeometry x="179.998" width="77.142" height="77.14285714285715" as="geometry" />
        </mxCell>
        <mxCell id="sF0Dp-q9WW-C34XVPIgy-371" value="" style="endArrow=none;html=1;rounded=0;" edge="1" parent="sF0Dp-q9WW-C34XVPIgy-370">
          <mxGeometry width="50" height="50" relative="1" as="geometry">
            <mxPoint x="25.714" y="77.14285714285715" as="sourcePoint" />
            <mxPoint x="25.714" as="targetPoint" />
          </mxGeometry>
        </mxCell>
        <mxCell id="sF0Dp-q9WW-C34XVPIgy-372" value="" style="endArrow=none;html=1;rounded=0;" edge="1" parent="sF0Dp-q9WW-C34XVPIgy-370">
          <mxGeometry width="50" height="50" relative="1" as="geometry">
            <mxPoint x="51.428" y="77.14285714285715" as="sourcePoint" />
            <mxPoint x="51.428" as="targetPoint" />
          </mxGeometry>
        </mxCell>
        <mxCell id="sF0Dp-q9WW-C34XVPIgy-373" value="" style="endArrow=none;html=1;rounded=0;" edge="1" parent="sF0Dp-q9WW-C34XVPIgy-370">
          <mxGeometry width="50" height="50" relative="1" as="geometry">
            <mxPoint x="77.142" y="25.714285714285715" as="sourcePoint" />
            <mxPoint y="25.714285714285715" as="targetPoint" />
          </mxGeometry>
        </mxCell>
        <mxCell id="sF0Dp-q9WW-C34XVPIgy-374" value="" style="endArrow=none;html=1;rounded=0;" edge="1" parent="sF0Dp-q9WW-C34XVPIgy-370">
          <mxGeometry width="50" height="50" relative="1" as="geometry">
            <mxPoint x="77.142" y="51.42857142857143" as="sourcePoint" />
            <mxPoint y="51.42857142857143" as="targetPoint" />
          </mxGeometry>
        </mxCell>
        <mxCell id="sF0Dp-q9WW-C34XVPIgy-375" value="" style="endArrow=none;html=1;rounded=0;" edge="1" parent="sF0Dp-q9WW-C34XVPIgy-325">
          <mxGeometry width="50" height="50" relative="1" as="geometry">
            <mxPoint x="83.5705" y="270" as="sourcePoint" />
            <mxPoint x="83.5705" as="targetPoint" />
          </mxGeometry>
        </mxCell>
        <mxCell id="sF0Dp-q9WW-C34XVPIgy-376" value="" style="endArrow=none;html=1;rounded=0;" edge="1" parent="sF0Dp-q9WW-C34XVPIgy-325">
          <mxGeometry width="50" height="50" relative="1" as="geometry">
            <mxPoint y="83.57142857142858" as="sourcePoint" />
            <mxPoint x="257.14" y="83.57142857142858" as="targetPoint" />
          </mxGeometry>
        </mxCell>
        <mxCell id="sF0Dp-q9WW-C34XVPIgy-377" value="" style="endArrow=none;html=1;rounded=0;" edge="1" parent="sF0Dp-q9WW-C34XVPIgy-325">
          <mxGeometry width="50" height="50" relative="1" as="geometry">
            <mxPoint y="173.57142857142858" as="sourcePoint" />
            <mxPoint x="257.14" y="173.57142857142858" as="targetPoint" />
          </mxGeometry>
        </mxCell>
        <mxCell id="sF0Dp-q9WW-C34XVPIgy-378" value="" style="group" vertex="1" connectable="0" parent="1">
          <mxGeometry x="560" y="560" width="257.14" height="270" as="geometry" />
        </mxCell>
        <mxCell id="sF0Dp-q9WW-C34XVPIgy-379" value="" style="group" vertex="1" connectable="0" parent="sF0Dp-q9WW-C34XVPIgy-378">
          <mxGeometry y="180" width="257.14" height="77.14285714285715" as="geometry" />
        </mxCell>
        <mxCell id="sF0Dp-q9WW-C34XVPIgy-380" value="" style="group" vertex="1" connectable="0" parent="sF0Dp-q9WW-C34XVPIgy-379">
          <mxGeometry width="77.142" height="77.14285714285715" as="geometry" />
        </mxCell>
        <mxCell id="sF0Dp-q9WW-C34XVPIgy-381" value="" style="endArrow=none;html=1;rounded=0;" edge="1" parent="sF0Dp-q9WW-C34XVPIgy-380">
          <mxGeometry width="50" height="50" relative="1" as="geometry">
            <mxPoint x="25.714" y="77.14285714285715" as="sourcePoint" />
            <mxPoint x="25.714" as="targetPoint" />
          </mxGeometry>
        </mxCell>
        <mxCell id="sF0Dp-q9WW-C34XVPIgy-382" value="" style="endArrow=none;html=1;rounded=0;" edge="1" parent="sF0Dp-q9WW-C34XVPIgy-380">
          <mxGeometry width="50" height="50" relative="1" as="geometry">
            <mxPoint x="51.428" y="77.14285714285715" as="sourcePoint" />
            <mxPoint x="51.428" as="targetPoint" />
          </mxGeometry>
        </mxCell>
        <mxCell id="sF0Dp-q9WW-C34XVPIgy-383" value="" style="endArrow=none;html=1;rounded=0;" edge="1" parent="sF0Dp-q9WW-C34XVPIgy-380">
          <mxGeometry width="50" height="50" relative="1" as="geometry">
            <mxPoint x="77.142" y="25.714285714285715" as="sourcePoint" />
            <mxPoint y="25.714285714285715" as="targetPoint" />
          </mxGeometry>
        </mxCell>
        <mxCell id="sF0Dp-q9WW-C34XVPIgy-384" value="" style="endArrow=none;html=1;rounded=0;" edge="1" parent="sF0Dp-q9WW-C34XVPIgy-380">
          <mxGeometry width="50" height="50" relative="1" as="geometry">
            <mxPoint x="77.142" y="51.42857142857143" as="sourcePoint" />
            <mxPoint y="51.42857142857143" as="targetPoint" />
          </mxGeometry>
        </mxCell>
        <mxCell id="sF0Dp-q9WW-C34XVPIgy-385" value="" style="group" vertex="1" connectable="0" parent="sF0Dp-q9WW-C34XVPIgy-379">
          <mxGeometry x="89.999" width="77.142" height="77.14285714285715" as="geometry" />
        </mxCell>
        <mxCell id="sF0Dp-q9WW-C34XVPIgy-386" value="" style="endArrow=none;html=1;rounded=0;" edge="1" parent="sF0Dp-q9WW-C34XVPIgy-385">
          <mxGeometry width="50" height="50" relative="1" as="geometry">
            <mxPoint x="25.714" y="77.14285714285715" as="sourcePoint" />
            <mxPoint x="25.714" as="targetPoint" />
          </mxGeometry>
        </mxCell>
        <mxCell id="sF0Dp-q9WW-C34XVPIgy-387" value="" style="endArrow=none;html=1;rounded=0;" edge="1" parent="sF0Dp-q9WW-C34XVPIgy-385">
          <mxGeometry width="50" height="50" relative="1" as="geometry">
            <mxPoint x="51.428" y="77.14285714285715" as="sourcePoint" />
            <mxPoint x="51.428" as="targetPoint" />
          </mxGeometry>
        </mxCell>
        <mxCell id="sF0Dp-q9WW-C34XVPIgy-388" value="" style="endArrow=none;html=1;rounded=0;" edge="1" parent="sF0Dp-q9WW-C34XVPIgy-385">
          <mxGeometry width="50" height="50" relative="1" as="geometry">
            <mxPoint x="77.142" y="25.714285714285715" as="sourcePoint" />
            <mxPoint y="25.714285714285715" as="targetPoint" />
          </mxGeometry>
        </mxCell>
        <mxCell id="sF0Dp-q9WW-C34XVPIgy-389" value="" style="endArrow=none;html=1;rounded=0;" edge="1" parent="sF0Dp-q9WW-C34XVPIgy-385">
          <mxGeometry width="50" height="50" relative="1" as="geometry">
            <mxPoint x="77.142" y="51.42857142857143" as="sourcePoint" />
            <mxPoint y="51.42857142857143" as="targetPoint" />
          </mxGeometry>
        </mxCell>
        <mxCell id="sF0Dp-q9WW-C34XVPIgy-390" value="" style="group" vertex="1" connectable="0" parent="sF0Dp-q9WW-C34XVPIgy-379">
          <mxGeometry x="179.998" width="77.142" height="77.14285714285715" as="geometry" />
        </mxCell>
        <mxCell id="sF0Dp-q9WW-C34XVPIgy-391" value="" style="endArrow=none;html=1;rounded=0;" edge="1" parent="sF0Dp-q9WW-C34XVPIgy-390">
          <mxGeometry width="50" height="50" relative="1" as="geometry">
            <mxPoint x="25.714" y="77.14285714285715" as="sourcePoint" />
            <mxPoint x="25.714" as="targetPoint" />
          </mxGeometry>
        </mxCell>
        <mxCell id="sF0Dp-q9WW-C34XVPIgy-392" value="" style="endArrow=none;html=1;rounded=0;" edge="1" parent="sF0Dp-q9WW-C34XVPIgy-390">
          <mxGeometry width="50" height="50" relative="1" as="geometry">
            <mxPoint x="51.428" y="77.14285714285715" as="sourcePoint" />
            <mxPoint x="51.428" as="targetPoint" />
          </mxGeometry>
        </mxCell>
        <mxCell id="sF0Dp-q9WW-C34XVPIgy-393" value="" style="endArrow=none;html=1;rounded=0;" edge="1" parent="sF0Dp-q9WW-C34XVPIgy-390">
          <mxGeometry width="50" height="50" relative="1" as="geometry">
            <mxPoint x="77.142" y="25.714285714285715" as="sourcePoint" />
            <mxPoint y="25.714285714285715" as="targetPoint" />
          </mxGeometry>
        </mxCell>
        <mxCell id="sF0Dp-q9WW-C34XVPIgy-394" value="" style="endArrow=none;html=1;rounded=0;" edge="1" parent="sF0Dp-q9WW-C34XVPIgy-390">
          <mxGeometry width="50" height="50" relative="1" as="geometry">
            <mxPoint x="77.142" y="51.42857142857143" as="sourcePoint" />
            <mxPoint y="51.42857142857143" as="targetPoint" />
          </mxGeometry>
        </mxCell>
        <mxCell id="sF0Dp-q9WW-C34XVPIgy-395" value="" style="endArrow=none;html=1;rounded=0;" edge="1" parent="sF0Dp-q9WW-C34XVPIgy-379">
          <mxGeometry width="50" height="50" relative="1" as="geometry">
            <mxPoint x="173.56949999999998" y="90" as="sourcePoint" />
            <mxPoint x="173.56949999999998" y="-180" as="targetPoint" />
          </mxGeometry>
        </mxCell>
        <mxCell id="sF0Dp-q9WW-C34XVPIgy-396" value="" style="group" vertex="1" connectable="0" parent="sF0Dp-q9WW-C34XVPIgy-378">
          <mxGeometry y="90" width="257.14" height="77.14285714285715" as="geometry" />
        </mxCell>
        <mxCell id="sF0Dp-q9WW-C34XVPIgy-397" value="" style="group" vertex="1" connectable="0" parent="sF0Dp-q9WW-C34XVPIgy-396">
          <mxGeometry width="77.142" height="77.14285714285715" as="geometry" />
        </mxCell>
        <mxCell id="sF0Dp-q9WW-C34XVPIgy-398" value="" style="endArrow=none;html=1;rounded=0;" edge="1" parent="sF0Dp-q9WW-C34XVPIgy-397">
          <mxGeometry width="50" height="50" relative="1" as="geometry">
            <mxPoint x="25.714" y="77.14285714285715" as="sourcePoint" />
            <mxPoint x="25.714" as="targetPoint" />
          </mxGeometry>
        </mxCell>
        <mxCell id="sF0Dp-q9WW-C34XVPIgy-399" value="" style="endArrow=none;html=1;rounded=0;" edge="1" parent="sF0Dp-q9WW-C34XVPIgy-397">
          <mxGeometry width="50" height="50" relative="1" as="geometry">
            <mxPoint x="51.428" y="77.14285714285715" as="sourcePoint" />
            <mxPoint x="51.428" as="targetPoint" />
          </mxGeometry>
        </mxCell>
        <mxCell id="sF0Dp-q9WW-C34XVPIgy-400" value="" style="endArrow=none;html=1;rounded=0;" edge="1" parent="sF0Dp-q9WW-C34XVPIgy-397">
          <mxGeometry width="50" height="50" relative="1" as="geometry">
            <mxPoint x="77.142" y="25.714285714285715" as="sourcePoint" />
            <mxPoint y="25.714285714285715" as="targetPoint" />
          </mxGeometry>
        </mxCell>
        <mxCell id="sF0Dp-q9WW-C34XVPIgy-401" value="" style="endArrow=none;html=1;rounded=0;" edge="1" parent="sF0Dp-q9WW-C34XVPIgy-397">
          <mxGeometry width="50" height="50" relative="1" as="geometry">
            <mxPoint x="77.142" y="51.42857142857143" as="sourcePoint" />
            <mxPoint y="51.42857142857143" as="targetPoint" />
          </mxGeometry>
        </mxCell>
        <mxCell id="sF0Dp-q9WW-C34XVPIgy-402" value="" style="group" vertex="1" connectable="0" parent="sF0Dp-q9WW-C34XVPIgy-396">
          <mxGeometry x="89.999" width="77.142" height="77.14285714285715" as="geometry" />
        </mxCell>
        <mxCell id="sF0Dp-q9WW-C34XVPIgy-403" value="" style="endArrow=none;html=1;rounded=0;" edge="1" parent="sF0Dp-q9WW-C34XVPIgy-402">
          <mxGeometry width="50" height="50" relative="1" as="geometry">
            <mxPoint x="25.714" y="77.14285714285715" as="sourcePoint" />
            <mxPoint x="25.714" as="targetPoint" />
          </mxGeometry>
        </mxCell>
        <mxCell id="sF0Dp-q9WW-C34XVPIgy-404" value="" style="endArrow=none;html=1;rounded=0;" edge="1" parent="sF0Dp-q9WW-C34XVPIgy-402">
          <mxGeometry width="50" height="50" relative="1" as="geometry">
            <mxPoint x="51.428" y="77.14285714285715" as="sourcePoint" />
            <mxPoint x="51.428" as="targetPoint" />
          </mxGeometry>
        </mxCell>
        <mxCell id="sF0Dp-q9WW-C34XVPIgy-405" value="" style="endArrow=none;html=1;rounded=0;" edge="1" parent="sF0Dp-q9WW-C34XVPIgy-402">
          <mxGeometry width="50" height="50" relative="1" as="geometry">
            <mxPoint x="77.142" y="25.714285714285715" as="sourcePoint" />
            <mxPoint y="25.714285714285715" as="targetPoint" />
          </mxGeometry>
        </mxCell>
        <mxCell id="sF0Dp-q9WW-C34XVPIgy-406" value="" style="endArrow=none;html=1;rounded=0;" edge="1" parent="sF0Dp-q9WW-C34XVPIgy-402">
          <mxGeometry width="50" height="50" relative="1" as="geometry">
            <mxPoint x="77.142" y="51.42857142857143" as="sourcePoint" />
            <mxPoint y="51.42857142857143" as="targetPoint" />
          </mxGeometry>
        </mxCell>
        <mxCell id="sF0Dp-q9WW-C34XVPIgy-407" value="" style="group" vertex="1" connectable="0" parent="sF0Dp-q9WW-C34XVPIgy-396">
          <mxGeometry x="179.998" width="77.142" height="77.14285714285715" as="geometry" />
        </mxCell>
        <mxCell id="sF0Dp-q9WW-C34XVPIgy-408" value="" style="endArrow=none;html=1;rounded=0;" edge="1" parent="sF0Dp-q9WW-C34XVPIgy-407">
          <mxGeometry width="50" height="50" relative="1" as="geometry">
            <mxPoint x="25.714" y="77.14285714285715" as="sourcePoint" />
            <mxPoint x="25.714" as="targetPoint" />
          </mxGeometry>
        </mxCell>
        <mxCell id="sF0Dp-q9WW-C34XVPIgy-409" value="" style="endArrow=none;html=1;rounded=0;" edge="1" parent="sF0Dp-q9WW-C34XVPIgy-407">
          <mxGeometry width="50" height="50" relative="1" as="geometry">
            <mxPoint x="51.428" y="77.14285714285715" as="sourcePoint" />
            <mxPoint x="51.428" as="targetPoint" />
          </mxGeometry>
        </mxCell>
        <mxCell id="sF0Dp-q9WW-C34XVPIgy-410" value="" style="endArrow=none;html=1;rounded=0;" edge="1" parent="sF0Dp-q9WW-C34XVPIgy-407">
          <mxGeometry width="50" height="50" relative="1" as="geometry">
            <mxPoint x="77.142" y="25.714285714285715" as="sourcePoint" />
            <mxPoint y="25.714285714285715" as="targetPoint" />
          </mxGeometry>
        </mxCell>
        <mxCell id="sF0Dp-q9WW-C34XVPIgy-411" value="" style="endArrow=none;html=1;rounded=0;" edge="1" parent="sF0Dp-q9WW-C34XVPIgy-407">
          <mxGeometry width="50" height="50" relative="1" as="geometry">
            <mxPoint x="77.142" y="51.42857142857143" as="sourcePoint" />
            <mxPoint y="51.42857142857143" as="targetPoint" />
          </mxGeometry>
        </mxCell>
        <mxCell id="sF0Dp-q9WW-C34XVPIgy-412" value="" style="group" vertex="1" connectable="0" parent="sF0Dp-q9WW-C34XVPIgy-378">
          <mxGeometry width="257.14" height="77.14285714285715" as="geometry" />
        </mxCell>
        <mxCell id="sF0Dp-q9WW-C34XVPIgy-413" value="" style="group" vertex="1" connectable="0" parent="sF0Dp-q9WW-C34XVPIgy-412">
          <mxGeometry width="77.142" height="77.14285714285715" as="geometry" />
        </mxCell>
        <mxCell id="sF0Dp-q9WW-C34XVPIgy-414" value="" style="endArrow=none;html=1;rounded=0;" edge="1" parent="sF0Dp-q9WW-C34XVPIgy-413">
          <mxGeometry width="50" height="50" relative="1" as="geometry">
            <mxPoint x="25.714" y="77.14285714285715" as="sourcePoint" />
            <mxPoint x="25.714" as="targetPoint" />
          </mxGeometry>
        </mxCell>
        <mxCell id="sF0Dp-q9WW-C34XVPIgy-415" value="" style="endArrow=none;html=1;rounded=0;" edge="1" parent="sF0Dp-q9WW-C34XVPIgy-413">
          <mxGeometry width="50" height="50" relative="1" as="geometry">
            <mxPoint x="51.428" y="77.14285714285715" as="sourcePoint" />
            <mxPoint x="51.428" as="targetPoint" />
          </mxGeometry>
        </mxCell>
        <mxCell id="sF0Dp-q9WW-C34XVPIgy-416" value="" style="endArrow=none;html=1;rounded=0;" edge="1" parent="sF0Dp-q9WW-C34XVPIgy-413">
          <mxGeometry width="50" height="50" relative="1" as="geometry">
            <mxPoint x="77.142" y="25.714285714285715" as="sourcePoint" />
            <mxPoint y="25.714285714285715" as="targetPoint" />
          </mxGeometry>
        </mxCell>
        <mxCell id="sF0Dp-q9WW-C34XVPIgy-417" value="" style="endArrow=none;html=1;rounded=0;" edge="1" parent="sF0Dp-q9WW-C34XVPIgy-413">
          <mxGeometry width="50" height="50" relative="1" as="geometry">
            <mxPoint x="77.142" y="51.42857142857143" as="sourcePoint" />
            <mxPoint y="51.42857142857143" as="targetPoint" />
          </mxGeometry>
        </mxCell>
        <mxCell id="sF0Dp-q9WW-C34XVPIgy-418" value="" style="group" vertex="1" connectable="0" parent="sF0Dp-q9WW-C34XVPIgy-412">
          <mxGeometry x="89.999" width="77.142" height="77.14285714285715" as="geometry" />
        </mxCell>
        <mxCell id="sF0Dp-q9WW-C34XVPIgy-419" value="" style="endArrow=none;html=1;rounded=0;" edge="1" parent="sF0Dp-q9WW-C34XVPIgy-418">
          <mxGeometry width="50" height="50" relative="1" as="geometry">
            <mxPoint x="25.714" y="77.14285714285715" as="sourcePoint" />
            <mxPoint x="25.714" as="targetPoint" />
          </mxGeometry>
        </mxCell>
        <mxCell id="sF0Dp-q9WW-C34XVPIgy-420" value="" style="endArrow=none;html=1;rounded=0;" edge="1" parent="sF0Dp-q9WW-C34XVPIgy-418">
          <mxGeometry width="50" height="50" relative="1" as="geometry">
            <mxPoint x="51.428" y="77.14285714285715" as="sourcePoint" />
            <mxPoint x="51.428" as="targetPoint" />
          </mxGeometry>
        </mxCell>
        <mxCell id="sF0Dp-q9WW-C34XVPIgy-421" value="" style="endArrow=none;html=1;rounded=0;" edge="1" parent="sF0Dp-q9WW-C34XVPIgy-418">
          <mxGeometry width="50" height="50" relative="1" as="geometry">
            <mxPoint x="77.142" y="25.714285714285715" as="sourcePoint" />
            <mxPoint y="25.714285714285715" as="targetPoint" />
          </mxGeometry>
        </mxCell>
        <mxCell id="sF0Dp-q9WW-C34XVPIgy-422" value="" style="endArrow=none;html=1;rounded=0;" edge="1" parent="sF0Dp-q9WW-C34XVPIgy-418">
          <mxGeometry width="50" height="50" relative="1" as="geometry">
            <mxPoint x="77.142" y="51.42857142857143" as="sourcePoint" />
            <mxPoint y="51.42857142857143" as="targetPoint" />
          </mxGeometry>
        </mxCell>
        <mxCell id="sF0Dp-q9WW-C34XVPIgy-423" value="" style="group" vertex="1" connectable="0" parent="sF0Dp-q9WW-C34XVPIgy-412">
          <mxGeometry x="179.998" width="77.142" height="77.14285714285715" as="geometry" />
        </mxCell>
        <mxCell id="sF0Dp-q9WW-C34XVPIgy-424" value="" style="endArrow=none;html=1;rounded=0;" edge="1" parent="sF0Dp-q9WW-C34XVPIgy-423">
          <mxGeometry width="50" height="50" relative="1" as="geometry">
            <mxPoint x="25.714" y="77.14285714285715" as="sourcePoint" />
            <mxPoint x="25.714" as="targetPoint" />
          </mxGeometry>
        </mxCell>
        <mxCell id="sF0Dp-q9WW-C34XVPIgy-425" value="" style="endArrow=none;html=1;rounded=0;" edge="1" parent="sF0Dp-q9WW-C34XVPIgy-423">
          <mxGeometry width="50" height="50" relative="1" as="geometry">
            <mxPoint x="51.428" y="77.14285714285715" as="sourcePoint" />
            <mxPoint x="51.428" as="targetPoint" />
          </mxGeometry>
        </mxCell>
        <mxCell id="sF0Dp-q9WW-C34XVPIgy-426" value="" style="endArrow=none;html=1;rounded=0;" edge="1" parent="sF0Dp-q9WW-C34XVPIgy-423">
          <mxGeometry width="50" height="50" relative="1" as="geometry">
            <mxPoint x="77.142" y="25.714285714285715" as="sourcePoint" />
            <mxPoint y="25.714285714285715" as="targetPoint" />
          </mxGeometry>
        </mxCell>
        <mxCell id="sF0Dp-q9WW-C34XVPIgy-427" value="" style="endArrow=none;html=1;rounded=0;" edge="1" parent="sF0Dp-q9WW-C34XVPIgy-423">
          <mxGeometry width="50" height="50" relative="1" as="geometry">
            <mxPoint x="77.142" y="51.42857142857143" as="sourcePoint" />
            <mxPoint y="51.42857142857143" as="targetPoint" />
          </mxGeometry>
        </mxCell>
        <mxCell id="sF0Dp-q9WW-C34XVPIgy-428" value="" style="endArrow=none;html=1;rounded=0;" edge="1" parent="sF0Dp-q9WW-C34XVPIgy-378">
          <mxGeometry width="50" height="50" relative="1" as="geometry">
            <mxPoint x="83.5705" y="270" as="sourcePoint" />
            <mxPoint x="83.5705" as="targetPoint" />
          </mxGeometry>
        </mxCell>
        <mxCell id="sF0Dp-q9WW-C34XVPIgy-429" value="" style="endArrow=none;html=1;rounded=0;" edge="1" parent="sF0Dp-q9WW-C34XVPIgy-378">
          <mxGeometry width="50" height="50" relative="1" as="geometry">
            <mxPoint y="83.57142857142858" as="sourcePoint" />
            <mxPoint x="257.14" y="83.57142857142858" as="targetPoint" />
          </mxGeometry>
        </mxCell>
        <mxCell id="sF0Dp-q9WW-C34XVPIgy-430" value="" style="endArrow=none;html=1;rounded=0;" edge="1" parent="sF0Dp-q9WW-C34XVPIgy-378">
          <mxGeometry width="50" height="50" relative="1" as="geometry">
            <mxPoint y="173.57142857142858" as="sourcePoint" />
            <mxPoint x="257.14" y="173.57142857142858" as="targetPoint" />
          </mxGeometry>
        </mxCell>
        <mxCell id="sF0Dp-q9WW-C34XVPIgy-431" value="" style="endArrow=none;html=1;rounded=0;strokeWidth=3;" edge="1" parent="1">
          <mxGeometry width="50" height="50" relative="1" as="geometry">
            <mxPoint x="550" y="841" as="sourcePoint" />
            <mxPoint x="550" y="1" as="targetPoint" />
          </mxGeometry>
        </mxCell>
        <mxCell id="sF0Dp-q9WW-C34XVPIgy-432" value="" style="endArrow=none;html=1;rounded=0;strokeWidth=3;" edge="1" parent="1">
          <mxGeometry width="50" height="50" relative="1" as="geometry">
            <mxPoint x="270" y="840" as="sourcePoint" />
            <mxPoint x="270" y="10" as="targetPoint" />
          </mxGeometry>
        </mxCell>
        <mxCell id="sF0Dp-q9WW-C34XVPIgy-433" value="" style="endArrow=none;html=1;rounded=0;strokeWidth=3;" edge="1" parent="1">
          <mxGeometry width="50" height="50" relative="1" as="geometry">
            <mxPoint x="1" y="270" as="sourcePoint" />
            <mxPoint x="811" y="270" as="targetPoint" />
          </mxGeometry>
        </mxCell>
        <mxCell id="sF0Dp-q9WW-C34XVPIgy-436" value="&lt;div align=&quot;left&quot;&gt;&lt;b&gt;&lt;font style=&quot;font-size: 26px;&quot;&gt;&lt;u&gt;Comment Jouer :&lt;/u&gt;&lt;/font&gt;&lt;/b&gt;&lt;/div&gt;&lt;div align=&quot;left&quot;&gt;&lt;font style=&quot;font-size: 22px;&quot;&gt;- La partie se déroule comme un mega morpion classique à la différence que la tetra case dans laquelle le coup est joué doit etre est décidée par le coup précédent&lt;/font&gt;&lt;/div&gt;&lt;div align=&quot;left&quot;&gt;&lt;font style=&quot;font-size: 22px;&quot;&gt;&lt;font&gt;- Le coup joué doit etre joué dans la tétra case correspondante a la position de la méga case du coup précédent.&lt;/font&gt;&lt;font&gt;&lt;br&gt;&lt;/font&gt;&lt;/font&gt;&lt;/div&gt;" style="text;html=1;align=left;verticalAlign=middle;whiteSpace=wrap;rounded=0;" vertex="1" parent="1">
          <mxGeometry x="57" y="862" width="696" height="144" as="geometry" />
        </mxCell>
      </root>
    </mxGraphModel>
  </diagram>
</mxfile>
